<?xml version="1.0" encoding="utf-8"?>
<!-- Generator: Adobe Illustrator 19.2.1, SVG Export Plug-In . SVG Version: 6.00 Build 0)  -->
<svg version="1.1" id="Calque_1" xmlns="http://www.w3.org/2000/svg" xmlns:xlink="http://www.w3.org/1999/xlink" x="0px" y="0px"
	 viewBox="0 0 940.4 130.4" style="enable-background:new 0 0 940.4 130.4;" xml:space="preserve">
<style type="text/css">
	.st0{fill:#00757F;}
	.st1{fill:none;}
	.st2{fill:#004B52;}
	.st3{fill:#45B29D;}
</style>
<g>
	<g>
		<g>
			<g>
				<g>
					<g>
						<g>
							<path class="st0" d="M130.4,43.4c8.4-2.6,14.2-8.1,14.2-14.6c0-8.9-11.3-16.2-25.2-16.2c-9.4,0-17.6,3.3-21.9,8.2L76.9,6.8
								L56.3,20.9c-4.3-4.9-12.5-8.2-21.9-8.2c-13.9,0-25.2,7.2-25.2,16.2c0,6.4,5.8,11.9,14.2,14.6L0,59.4l20.7,14.2
								c4.3-4.9,12.5-8.1,21.8-8.1c13.9,0,25.2,7.2,25.2,16.2c0,6.4-5.7,11.9-14.1,14.5l10,6.8l13.3,9.1l13.5-9.3l9.7-6.7
								c-8.3-2.6-14.1-8.1-14.1-14.5c0-8.9,11.3-16.2,25.2-16.2c9.3,0,17.5,3.3,21.8,8.1l20.7-14.2L130.4,43.4z M76.8,96.9
								c-1.4,0-4-1.5-4-3.5c0-2,2.8-5,4.2-5c1.4,0,3.9,2.9,3.9,4.8C81,95.2,78.2,96.9,76.8,96.9z"/>
							<g>
								<g>
									<circle class="st0" cx="53.5" cy="78.1" r="6.1"/>
								</g>
								<g>
									<path class="st0" d="M106.5,78.1c0,3.4-2.7,6.1-6.1,6.1c-3.4,0-6.1-2.7-6.1-6.1c0-3.4,2.7-6.1,6.1-6.1
										C103.7,72,106.5,74.7,106.5,78.1z"/>
								</g>
							</g>
						</g>
					</g>
				</g>
			</g>
			<g>
				<path class="st0" d="M208.3,65.4c2-2.2,4.1-4.4,6.2-6.8c2.1-2.4,4.2-4.7,6.2-7s3.9-4.5,5.7-6.6c1.8-2.1,3.3-3.9,4.6-5.4h24.2
					c-4.8,5.5-9.5,10.8-14.1,15.9c-4.6,5-9.6,10.3-15.1,15.6c2.7,2.5,5.6,5.4,8.5,8.8c2.9,3.4,5.7,7,8.5,10.6
					c2.7,3.7,5.2,7.3,7.5,11c2.3,3.7,4.2,7,5.7,10h-23.4c-1.5-2.4-3.1-5-5-7.9c-1.9-2.9-3.8-5.8-5.9-8.6c-2.1-2.9-4.3-5.6-6.6-8.3
					c-2.3-2.6-4.6-4.9-6.9-6.7v31.5H188V8.7l20.4-3.3V65.4z"/>
				<path class="st0" d="M322,109.1c-3.5,1-7.9,1.9-13.4,2.8c-5.5,0.9-11.2,1.3-17.2,1.3c-6.1,0-11.2-0.8-15.2-2.5
					c-4.1-1.6-7.3-3.9-9.6-6.9c-2.4-3-4.1-6.5-5.1-10.6c-1-4.1-1.5-8.6-1.5-13.5V39.6h20.4v37.6c0,6.6,0.9,11.3,2.6,14.2
					c1.7,2.9,5,4.4,9.7,4.4c1.5,0,3-0.1,4.6-0.2c1.6-0.1,3.1-0.3,4.4-0.5V39.6H322V109.1z"/>
				<g>
					<path class="st1" d="M374.4,70.9c-3.2,3.7-6.4,7.7-9.7,11.8c-3.2,4.1-6.2,8.1-8.8,11.9h32.5c1.2-1.8,2.5-3.7,3.9-5.7
						c2.7-3.8,5.5-7.6,8.5-11.4c3-3.8,5.9-7.5,8.8-11.1c2.9-3.6,5.6-6.9,8.1-9.8h-30.6c-1.1,1.2-2.3,2.6-3.7,4.1
						C380.6,63.8,377.6,67.2,374.4,70.9z"/>
					<path class="st0" d="M388.5,94.6h-32.5c2.6-3.8,5.6-7.8,8.8-11.9c3.2-4.1,6.5-8,9.7-11.8c3.2-3.7,6.2-7.2,9-10.3
						c1.4-1.5,2.6-2.9,3.7-4.1h0v-17h-54.2v17h30.6c-2.5,2.9-5.2,6.2-8.1,9.8c-2.9,3.6-5.9,7.3-8.8,11.1c-3,3.8-5.8,7.6-8.5,11.4
						c-2.7,3.8-5,7.3-6.9,10.6v12h54.2v-12C386.3,97.9,387.3,96.3,388.5,94.6z"/>
					<path class="st2" d="M410.1,94.6c2.6-3.8,5.6-7.8,8.8-11.9c3.2-4.1,6.5-8,9.7-11.8c3.2-3.7,6.2-7.2,9-10.3
						c2.8-3.1,5-5.6,6.6-7.4V39.6H390h-3v17h0h30.6c-2.5,2.9-5.1,6.2-8.1,9.8c-2.9,3.6-5.9,7.3-8.8,11.1c-3,3.8-5.8,7.6-8.5,11.4
						c-1.4,2-2.7,3.8-3.9,5.7c-1.1,1.7-2.1,3.3-3,4.9v12h5.3h54.2v-17H410.1z"/>
				</g>
				<polygon class="st2" points="455.4,8.7 455.4,111.5 475.8,111.5 475.8,5.4 				"/>
				<path class="st2" d="M481,76.1c0-6.4,1-12,2.9-16.7c2-4.8,4.5-8.8,7.7-12c3.2-3.2,6.9-5.6,11-7.2c4.1-1.6,8.4-2.5,12.8-2.5
					c10.2,0,18.3,3.1,24.2,9.4c5.9,6.2,8.9,15.4,8.9,27.5c0,1.2,0,2.5-0.1,3.9c-0.1,1.4-0.2,2.7-0.3,3.8h-46.2
					c0.5,4.2,2.4,7.5,5.9,10c3.5,2.5,8.1,3.7,13.9,3.7c3.7,0,7.4-0.3,11-1c3.6-0.7,6.5-1.5,8.8-2.5l2.7,16.5
					c-1.1,0.5-2.6,1.1-4.4,1.6c-1.8,0.5-3.9,1-6.1,1.4c-2.2,0.4-4.6,0.8-7.2,1c-2.6,0.3-5.1,0.4-7.7,0.4c-6.5,0-12.1-1-16.9-2.9
					c-4.8-1.9-8.8-4.5-11.9-7.9c-3.1-3.3-5.5-7.3-7-11.8C481.7,86.3,481,81.4,481,76.1z M528.8,68.3c-0.1-1.7-0.4-3.4-0.9-5.1
					c-0.5-1.6-1.3-3.1-2.3-4.4c-1.1-1.3-2.4-2.3-4-3.1c-1.6-0.8-3.6-1.2-5.9-1.2c-2.3,0-4.2,0.4-5.9,1.2c-1.6,0.8-3,1.8-4.1,3.1
					c-1.1,1.3-1.9,2.8-2.5,4.4c-0.6,1.7-1,3.4-1.3,5.1H528.8z"/>
			</g>
		</g>
	</g>
</g>
<g>
	<path class="st3" d="M641.9,3.4c0,0.6-0.3,1-0.6,1.5l-0.4,2.2l-0.6,2l-0.9,2.4c-0.1,0.3-0.4,0.4-0.4,0.7l-0.1-0.7V11
		c-0.2,0.2-0.4,0.2-0.4,0.4c-0.2,0.8-0.4,1.7-0.9,2.6c0,0.1-0.2,0.2-0.3,0.3c0-0.1,0-0.3,0.1-0.4c0.4-1.8,1-3.3,1.4-5l-0.1-0.4
		c-0.2,0.1-0.4,0.1-0.4,0.3c-0.1,0.8-0.3,1.5-0.7,2.3c-0.1,0.3-0.4,0.6-0.7,0.8c-0.1,0.1-0.1,0.6,0,0.6c0.3,0.6,0,1.5-0.7,1.9
		c-0.3,0.2-0.3,0.9-0.3,1.4c0.2-0.1,0.3-0.1,0.4-0.2c-0.2,0.3-0.4,0.6-0.6,0.9c-0.2,0.2-0.4,0.4-0.6,0.7c-0.1,0.1,0,0.2,0,0.3
		c0.1,0,0.2-0.1,0.2-0.1c0.1-0.1,0.2-0.2,0.3-0.2c0,0.1,0,0.2-0.1,0.3c-0.2,0.8-0.2,1.7-0.6,2.4c-0.1,0.3-0.6,0.6-0.7,0.8
		c-0.3,0.4-0.4,0.9-0.4,1.2c-0.1,0,0,0.1,0,0.1c0.1,0.2-0.1,0.7-0.2,0.9c-0.3,0.8-0.7,1.4,0.8-3.4l-0.7,1c-0.1,0.3-0.1,0.7-0.2,1.1
		l-0.9,3.5v0.4c0-0.1,0.1-0.1,0.1-0.2c0.2,0,0.3-0.1,0.4-0.1c0,0.1,0,0.3-0.1,0.3c-0.2,0.4-0.7,0.9-0.9,1.2c-0.1,0-0.1-0.1-0.1-0.2
		c-0.2,0.4-0.8,0.9-0.2,1.2c-0.4,0.2-0.1,0.6-0.2,0.9c-0.1,0.7-0.8,1.2-1.1,1.9c-0.3,0.6-0.2,1.1-0.6,1.7c0,0.2-0.1,0.4-0.2,0.8
		c-0.1,0.2-0.3,0.6-0.4,0.9c-0.1,0.8-0.6,1.7-0.8,2.4c-0.1,0.6-0.6,1.1,0.2,1.8c0.2,0.1,0.1,0.6,0.1,0.9c-0.2,0.1-0.3,0.3-0.6,0.4
		c0,0.2-0.1,0.4-0.2,0.7l-0.4-0.8c-0.1,0.3-0.3,0.7-0.4,1l-0.3,0.9c0,0.2-0.4,0.7,0.2,0.3c0.1,0.2,0.2,0.4,0.1,0.6
		c-0.2,0.6-0.6,1-0.9,1.5c0.1,0.1,0.1,0.2,0.1,0.3c0.3,0.1,0.1,0.2,0.1,0.2c0-0.1-0.1,0-0.2-0.1l-1,2.2h-0.1c0.1,0.7,0.7,1.5-0.1,2
		c-0.7,0.4-0.8,1.2-1.3,1.7c-0.4,0.6-0.4,1-0.4,1.7c-0.1,0-0.1,0.1-0.2,0.1c0,0.7-0.2,1.3-0.9,1.7c-0.1,0,0.2,1.4,0.2,1.5
		c-0.7,1.4-1.4,2.8-1.7,4.4c-0.4,1.8-1.5,3-2.2,4.6c-0.1,0.6-0.1,1.3-0.2,2c0,0.3-1.8,7.2-1.9,7.4c-2.3,6.5-2.9,9.2-3.8,12.1
		l-2.2,7.6c-0.2,0.1-0.4,0.4-0.6,0.7c-0.6,0.8-1,1-1.9,0.7c-1.4-0.7-2-2.1-1.9-2l-2.1-2.1c-0.7-0.7,0.2-5.2,0.6-6.1
		c0.1-0.2,0-0.6-0.1-0.8c-0.2,0.1-0.4,0.2-0.6,0.3l-3.2,3.9c-1.1,1.1-2.3,2.1-3.3,3.1c-1.2,0.9-2.3,2-3.4,2.6c-1,0.6-2.1,0.9-3.2,1
		c-1.9,0.4-3.4-0.6-5.1-1.3c-1-0.7-1.8-1.7-2.5-2.4c-3.5-4.2-3.4-9-2.9-14.1c0.6-4,2.1-7.7,3.3-11.6c1.2-3.3,3-6.4,4.9-9.3
		c1.9-3.3,4.3-6.2,6.6-9c0.9-1.2,2.1-2.2,3.3-3.2c1.3-1.1,2.9-2.2,4.5-3.1c1.9-0.9,3.9-1.2,6-0.9c1.1,0.3,2.1,1,3.2,1.5l3.5,1.9
		c1,0.6,1.2,1.4,1.4,2.4c0,0.1,0.2,0.2,0.3,0.3l-0.4-1.5c-0.1-0.4,0.6-1,0.8-1.4h0.2c0.2-0.8,0.3-1.7,0.6-2.4
		c0.4-1.1,0.9-2.2,1.2-3.3c1-1.7,1.3-3.5,2.2-5.3c0.1-1,0.7-2.1,1.2-3.1c0.1-0.2-0.1-0.6,0-0.8c0.2-0.4,0-1.3,1-1.4
		c0,0,0.1-0.2,0.1-0.3c-0.7-1.2,0.3-2.1,0.7-3.1l0.4-0.7l0.8-3.3l0.4-0.1c0.4-1.3,0.6-2.6,0.9-4c0.9-2.9,1.5-5.7,2.6-8.5
		c0.7-2.6,0.7-3.5,2.6-5.3c0.4-0.4,5.7-1.3,6.4-0.9l0.3,0.4c0.1,0.1,0.1,0.2,0.1,0.2c0.6,0.2,1.2,0.4,1.5,0.9
		C641.7,2.1,641.9,2.9,641.9,3.4z M583.9,76.4c-0.2,0.3-0.4,0.7-0.6,1.1v0.9l0.2-0.9L583.9,76.4z M587,64.4c0.1-0.1,0.2-0.4,0.2-0.7
		v-0.2c-0.1,0.1-0.2,0.1-0.2,0.1c-0.2,0.2-0.3,0.3-0.4,0.6l-2.4,5.8c-0.2,0.3-0.2,0.8-0.2,1.1c0.1-0.3,0.3-0.7,0.4-1
		C585.3,68.3,586.2,66.4,587,64.4z M615.7,50.9l1.2-2.9v-0.3l-0.3,0.2c-0.8,0.6-1,0.4-1.2-0.3V47c-0.4-0.4-0.7-1.2-1.2-1.2
		c-0.7-0.2-1.5-0.1-2.3,0.1c-2,0.4-4.1,1-5.7,2.3c-1.1,1.1-2.3,2-3.5,2.9l-2,1.9c-1,1.1-1.9,2.3-2.8,3.5c-1.1,1.5-2,3.3-3.1,4.9
		c-0.3,0.4-0.8,0.9-1,1.4c-0.6,0.9-0.8,2-1.2,3c-0.3,0.7-0.9,1.1-1.1,1.8c-0.8,1.8-1.5,3.4-2.2,5.3c-0.4,1.2-0.9,2.4-1.4,3.6
		c-0.4,1.2,0.2,2.6-0.8,3.8c-0.2,0.2,0,0.6,0,0.9c0,0.2,0.1,0.4,0.1,0.7c0,2,0.1,3.9,0.3,5.7c0.1,1.4,0.3,1.5,1.5,0.7
		c2-1.5,4.1-2.9,5.6-5c1.5-1.8,3.3-3.4,4.9-5.3c2.3-3,4.6-6.1,6.7-9.3c1.5-2.3,2.8-5,4.3-7.3c0.7-1.4,1.4-2.9,2.1-4.2
		C613.7,55.1,614.7,53,615.7,50.9z M588.9,60.1c0,0.1,0.1,0.2,0.1,0.2c0.2-0.2,0.4-0.3,0.7-0.8c0,0-0.1,0-0.2-0.3
		C589.2,59.7,589.1,59.9,588.9,60.1z M589.9,58.8c0.2-0.1,0.4-0.1,0.6-0.3l1.7-2.8l0.2-0.6h-0.1c0,0.2-0.1,0.3-0.1,0.6
		c-0.3,0.2-0.8,0.4-1,0.8c-0.4,0.6-0.8,1.2-1.1,1.8C590,58.5,590,58.7,589.9,58.8z M608.7,67.7c-0.2,0.2-0.4,0.3-0.6,0.6l-2.3,3.3
		c-1.8,2.6-3.8,5.1-6.1,7.2c-0.9,0.9-1.7,1.9-2.5,2.8c-0.1,0.1-0.2,0.4-0.2,0.7c0,0.1,0.3,0.2,0.6,0.3l0.7-0.3
		c1.2-1.2,2.2-2.4,3.5-3.4c2.1-1.5,3.3-3.6,4.7-5.6c1.1-1.2,1.4-3.1,2.1-4.7C608.7,68.2,608.6,68.1,608.7,67.7z M603.8,83.6
		c-0.1,0-0.3-0.1-0.3-0.1c0,0.1-0.1,0.2-0.1,0.3c-0.1,0,0,0.1,0.1,0.1C603.5,83.9,603.6,83.9,603.8,83.6z M605.4,81.5
		c-0.1-0.1-0.2-0.1-0.2-0.1c-0.2,0.2-0.4,0.4-0.6,0.7l0.2,0.2C605,82.1,605.2,81.9,605.4,81.5z M613.3,63.6c0,0.1-0.1,0.2-0.2,0.3
		h0.1C613.2,63.8,613.3,63.7,613.3,63.6z M614.3,73.3c0-0.1-0.1-0.2-0.1-0.3c-0.2,0.2-0.4,0.6-0.7,0.9c-0.1,0,0.1,0.2,0.2,0.6
		C614,73.9,614.1,73.6,614.3,73.3z M622.6,43.7c-0.1-0.1-0.3-0.1-0.3-0.3c-0.1-0.2-0.2-0.4-0.1-0.7c0-0.1,0.2-0.2,0.3-0.3l0.4,0.4
		c0.6-0.4,0-0.6,0-1c-0.1-0.6-0.2-1.2-0.1-1.8c0-0.3,0.1-0.6,0.3-0.8c0.1-0.3,0.3-0.7,0.4-1c0.1-0.3-0.1-0.8,0.7-0.4
		c0.1,0,0.4-0.1,0.3-0.2c0.1-0.4,0.1-0.9,0.3-1.3c0.2-0.6-0.4-0.6-0.6-0.8c-0.4-0.9-0.6-0.2-0.8,0.1c-0.1,0.3-0.3,0.7-0.4,0.9
		c-0.3,1.2-0.8,2.2-1.3,3.3c-0.3,0.6-0.6,1.2-0.9,1.9c-0.7,1-1.1,2.2-1.4,3.2l-1.8,3.5c-0.7,1.3-0.6,3.9-1.2,5.1l-1.2,2.9
		c-0.1,0.2-0.1,0.4-0.1,0.7c-0.1,0.1-0.2,0.1-0.2,0.2c-0.4,0.4,0,1.1-0.7,1.3c0,0.2,0,0.4-0.1,0.6c-0.6,0.6-0.8,1.4-0.2,1.9
		l-0.3,0.4v0.2c0.2,0,0.4,0.1,0.7,0c0.2,0,0.2-0.3,0.2-0.4c-0.1-0.1-0.3-0.1-0.6-0.2c0.4-0.3,0.8-0.8,1.2-1.2
		c0.1-0.1,0.2-0.3,0.4-0.4v-0.6c0.1-0.2,0-0.8,0.1-0.8c0.4-0.1,0.2-0.6,0.2-0.8l0.8-1.1c0.2-0.3,0.1-0.8,0.8-0.6
		c0.4-0.4,0.3-0.9,0-1.2l0.4-2.3l1.3-3l0.3-1v-0.2c0.1,0,0.2,0,0.2,0.1c0.2,0.1,0.3,0.2,0.4,0.2c0-0.1,0-0.3-0.1-0.4v-0.4
		c0.1,0,0.2,0.1,0.2,0.1c0.2,0,0.3,0.1,0.4,0.2c0.1-0.2,0.1-0.4-0.1-0.7c-0.1-0.4-0.3-1-0.1-1.2c0.7-0.6,0.7-1.4,0.9-2.2l0.1-0.4
		l0.1,0.4c0.2,0.1,0.3,0.2,0.6,0.2C622.4,43.9,622.5,43.8,622.6,43.7z M615.3,70.2c0-0.2-0.1-0.3-0.1-0.6c0,0.1-0.1,0.1-0.1,0.1
		l-0.9,2.3c0,0.1,0.1,0.3,0.2,0.4l0.2-0.2C615,71.6,615.2,70.8,615.3,70.2z M616.7,65.7c-0.2,0.1-0.3,0.2-0.4,0.3
		c-0.2,0.4-0.3,0.9-0.6,1.3l-0.2,0.9c0.1,0,0.1,0.1,0.2,0.1c0-0.3,0.1-0.7,0-1l1-1.2V65.7z M617.2,64.8c0-0.2,0-0.3-0.2-0.4
		c0.1,0.1,0,0.2,0,0.3C617.1,64.7,617.1,64.8,617.2,64.8z M617.5,63.6c-0.1-0.1-0.1-0.1-0.2-0.1c0,0.2-0.1,0.4-0.1,0.7
		C617.3,63.9,617.4,63.7,617.5,63.6z M621.5,52.1l-0.1-0.1c-0.2,0.3-0.3,0.8-0.6,1.1c-0.9,0.3-0.2,2.4-0.6,3c-0.7,1-1.1,2-1.5,3.1
		c-0.1,0.1-0.1,0.3-0.1,0.6c-0.1,0.3-0.2,0.7-0.4,1c0.2-0.3,0.6-0.6,0.8-0.8l-0.3-0.2c0.3-0.1,0.7-0.2,0.8-0.4
		c0.3-0.8,0.3-1.7,0.9-2.4c0.4-0.8,0.4-2.8,0.6-3.8L621.5,52.1z M622.1,50.3l0.3-0.2l-0.2-0.2c-0.1,0.2-0.2,0.3-0.2,0.4
		c0.2,0.1,0.2,0.2,0.1,0.3C622.2,50.5,622.3,50.4,622.1,50.3z M623.8,47.7c-0.3,0-0.4-0.1-0.7-0.1c-0.1-0.1-0.1,0.1-0.2,0.1
		c0.1,0.1,0.2,0.2,0.4,0.2C623.5,48,623.6,47.9,623.8,47.7z M623.8,45.5l-0.7,0.8h0.7V45.5z M623.6,51.5c0.1-0.1,0.2-0.2,0.2-0.3
		c0.1-0.1,0.1,0,0.1,0L623.6,51.5z M624.3,39.5l-0.3-0.3c-0.1,0.1-0.2,0.2-0.2,0.3c0,0.2,0.2,0.3,0.2,0.4
		C624.1,39.8,624.2,39.7,624.3,39.5z M623.9,34.3l0.4,0.4c0,0.1,0.4,0.2,0.4,0.1c0.1-0.2-0.1-0.6,0-0.8h0.1c0.6,0.4,1.1,0.7,1-0.3
		c0.1-0.3,0.4-0.6,0.7-0.9c0.1,0,0-0.2,0-0.2c-0.1,0-0.2,0-0.3,0.1c-0.2,0.1-0.6,0.7-0.7,0.6C624.6,33,624.4,33.9,623.9,34.3z
		 M627.5,36.4c-0.3,0.3-0.7,0.6-0.8,0.9c-0.6,1.7-1.2,3.2-1.7,4.9V42c-0.2,0.8-0.4,1.5-0.9,2.1c-0.1,0.2,0,0.6-0.1,0.8
		c0,0,0.2,0.1,0.3,0.1c0.1-0.3,0.3-0.6,0.4-0.8c0-0.1,0-0.1-0.1-0.2s0.1-0.2,0.1-0.3c0.3-0.9,1.2-1.7,1.2-2.6
		c-0.2-0.2,0-0.4,0.1-0.6c0.2-0.4,0.4-0.8,0.6-1.1c0.3-0.6,0.6-1.1,0.4-1.8L627.5,36.4z M624.5,38.5c-0.1,0-0.2,0.1-0.2,0.1
		c0,0.2,0.1,0.3,0.2,0.4c0-0.1,0.1-0.1,0.2-0.2C624.6,38.7,624.5,38.6,624.5,38.5z M627.5,30.7c-0.1-0.2-0.3-0.3-0.4-0.6l1.3-1
		c0-0.1,0-0.3-0.1-0.4s-0.4-0.1-0.4-0.1c-0.2,0.6-0.6,0.6-1,0.4c0,0.4,0.8,0.7,0.2,1.1l-0.7,0.3c-1,0.4-0.9,1.4-1.2,2.2
		c0,0.1-0.1,0.2-0.1,0.3h0.1v-0.3c0.6,0,1.1-0.1,0.8-0.9c0-0.2,0.3-0.8,0.7-1c0-0.1,0.2,0.1,0.3,0.1c0.1,0.1,0.2,0.2,0.2,0.3
		C627.3,31,627.5,30.8,627.5,30.7z M627.3,22.6c0,0,0.1,0,0.1,0.1c0.2-0.2,0.3-0.6,0.4-0.8l-0.3-0.2
		C627.6,22.1,627.4,22.3,627.3,22.6z M627.7,27.3c0.2,0.1,0.3,0.3,0.6,0.4c-0.1,0.1-0.2,0.2-0.2,0.3v0.1c0.1-0.1,0.1-0.3,0.2-0.4
		c-0.1-0.1-0.1-0.3-0.1-0.4C628,27.1,627.9,27.3,627.7,27.3z M628.1,35.5c0-0.1-0.1-0.2-0.1-0.3c-0.1,0.1-0.2,0.1-0.2,0.2
		c0.1,0,0.1,0.1,0.2,0.2C628,35.5,628.1,35.5,628.1,35.5z M628.7,26.6c-0.1,0-0.2-0.1-0.3-0.1c0,0-0.1,0.1-0.2,0.1l0.3,0.2
		C628.5,26.7,628.6,26.7,628.7,26.6z M628.5,38.5c0,0-0.1,0.1-0.1,0.2c-0.1,0,0,0.1,0,0.1c0.1-0.1,0.1-0.1,0.1-0.2V38.5z
		 M629.1,25.8c0-0.3-0.1-0.6-0.2-0.9l-0.1-0.2h-0.1c0,0.1,0.1,0.1,0.2,0.2v0.8c-0.1,0.2,0,0.2,0.1,0.2L629.1,25.8z M630,22.7
		c0-0.1-0.1-0.2-0.2-0.3l-0.4,0.7c0,0.1,0.1,0.2,0.2,0.4L630,22.7z M630.1,21.5c-0.1,0-0.1-0.1-0.2-0.1c0,0.1-0.1,0.1-0.1,0.2
		c0.1,0,0.1,0.1,0.2,0.1C630,21.7,630.1,21.6,630.1,21.5z M630,35.4l0.3,0.2H630V35.4z M630.3,34.8V35c-0.1,0-0.1-0.1-0.1-0.1v-0.2
		C630.3,34.8,630.4,34.8,630.3,34.8z M631.2,33.4l0.3-0.7c-0.1-0.1-0.2-0.1-0.3-0.1c0-0.2,0.1-0.3,0.2-0.4c0.1,0.2,0.1,0.3,0.1,0.4
		C631.7,33.3,631.7,33.4,631.2,33.4z M634.4,22.6c-0.3,0.6-0.6,1.1-0.8,1.7c-0.1,0-0.1,0.1-0.2,0.1v-0.2c0-0.1,0.1-0.1,0.1-0.2
		c0.2-0.4,0.6-0.9,0.8-1.4C634.3,22.6,634.4,22.6,634.4,22.6z M634.6,25.2c0.1,0.1,0.1,0.1,0.1,0.2c-0.1,0-0.1,0.1-0.2,0.1v-0.2
		L634.6,25.2z M635.5,21.5l-0.4,1.3c0,0.1-0.1,0.2-0.1,0.2l-0.1-0.1l0.4-1.7h0.1C635.5,21.3,635.5,21.4,635.5,21.5z M636.4,18.7
		c-0.1,0.6-0.2,1.1-0.4,1.7c0,0.1-0.2,0.2-0.3,0.3c-0.1-0.1-0.1-0.2-0.1-0.3l0.6-1.7l0.1-0.2C636.2,18.4,636.4,18.5,636.4,18.7z
		 M636.3,20.4v0.3V20.4z M636.4,21.1l0.2,0.3C636.5,21.3,636.4,21.2,636.4,21.1z M637.2,15.1v0.2l-0.4,1.2c0.1-0.4,0.3-0.9,0.2-1.3
		C637,15.1,637.1,15.1,637.2,15.1z M639.1,12.9c0,0.1,0.1,0.2,0.1,0.3c-0.3,0.7-0.8,1.4-1,2.2c0,0-0.1,0-0.1,0.1
		c-0.1-0.1-0.1-0.2-0.1-0.2c0.2-0.8,0.4-1.5,0.8-2.2C638.7,13,638.9,13,639.1,12.9z M639.6,9.7l-0.2-0.2c0,0.1-0.1,0.3-0.2,0.4
		c0,0.1,0.1,0.2,0.1,0.3L639.6,9.7z M639.9,7.5c-0.2,0.3-0.4,0.7-0.7,0.9c0.1,0.2,0.1,0.3,0.1,0.4c0.2-0.3,0.4-0.7,0.6-1
		C640,7.7,639.9,7.6,639.9,7.5z"/>
	<path class="st3" d="M661.2,67c-0.2,1.9-0.1,3.8-0.4,5.4c-0.3,1.7-1.1,2.8-2.3,3.9c-0.1,0-0.3,0.2-0.3,0.6
		c-0.3,0.6-0.7,1.2-1.1,1.8c-0.9,1.2-2.1,2.3-3.3,3.2l-1.9,1.5c-0.3,0.1-0.3,0.3-0.3,0.4c0.2,0,0.6,0.1,0.7,0.1
		c0.3,0,0.7-0.1,0.9-0.1c-0.2,0.2-0.3,0.7-0.7,0.8l-1.3,0.9l-0.4,0.9l-1.1,1l-0.3,0.3c0.1,0.1,0.4,0.1,0.6,0.1
		c0.4-0.2,0.9-0.3,1.2-0.6h0.3v0.2l-0.3,0.3c-1.2,1.1-2.6,2.3-4.2,3.1c-1.7,1.2-3.5,1.9-5.6,2.6c-0.6,0.3-1.3,0.1-2.1,0h-0.8
		c-1.8,0.2-3.5-0.3-5.2-0.8c-2.2-0.4-3.4-2-5-3.2c-1-0.7-2-1.7-2.9-2.4c-1.4-1.2-2-2.6-2.4-4.1c-1.1-2.4-1.2-4.9-0.8-7.2
		c0.3-2.3,1-4.5,1.3-6.8v-0.1l2-5.1l1.7-3.5c0.2-0.3,0.6-0.4,0.6-0.8c0.2-0.3,0.3-0.7,0.4-1c0.1-0.1,0.1-0.3,0.2-0.4l1.3-1.8
		c0.2-0.1,0.2-0.6,0.4-0.7l0.4-0.8c0.6-0.4,1-1,1.4-1.7l-0.4-0.1c0.2-0.2,0.4-0.7,0.7-0.7c0.7,0.1,1-0.6,1.3-0.9l1.3-1.8
		c0.2-0.2,0.9-0.4,0.4-1c0-0.1,0.3-0.3,0.4-0.4c2.8-2.6,5.6-5.4,9.3-7.2c1.4-0.9,3.3-1.2,5.2-1.7c2.1-0.8,4,0.1,5.7,1.2l1.1,0.3
		c0.9,0.3,1.5,0.7,1.8,1.5c0.2,0.2,0.4,0.2,0.8,0.4c0.8,0.6,1.2,1.2,1.8,2.4c1,2.9-0.7,5-1.2,7.4l-0.4,1.4c-0.8,1.4-1.3,3.1-2,4.5
		c-0.9,1.8-1.8,3.6-3,5c-1.2,1.3-2.8,2.3-4.2,3c-1.3,0.8-2.8,1-4.3,1.3c-1.4,0.2-3,0.3-4.5,0.3c-0.9,0-1.8-0.2-2.5-0.3
		c-1.9-0.4-3.8-0.7-5.6-1.2c-0.8-0.1-1.1,0.1-1.4,0.7c-0.4,1.5-1.1,3-1.7,4.4l-1,3.5c-0.1,0.4-0.4,0.8-0.7,1.3
		c0,0.1-0.1,0.2-0.1,0.3l-0.2,2.9c-0.3,2.8-0.3,5.7,1.9,8.3c0.8,1,2,1.7,3.4,1.5c3.5-0.2,6.2-1.4,8.9-3.1c0.8-0.4,1.5-0.9,2.3-1.2
		c0.4-0.3,1.1-0.3,1.8-0.6c1.4-0.7,3-1.4,4.4-2.2c1.3-0.9,2.4-1.8,3.8-2.6c0.2-0.2,0.3-0.8,0.6-1.1c-0.4,0.1-0.8,0.3-1,0.7l-3.9,2.3
		c-1,0.8-2.2,1.4-3.4,2.3c-0.2,0-0.3,0-0.4,0.1l0.2-0.6c1.2-0.7,2.4-1.3,3.5-2.2c0.6-0.7,1.5-1.2,2-2.2c0.4-1.1,1.5-1.8,2.2-2.4
		c2.2-2.3,3.5-5.1,5-7.9l0.8-2.3c0.1-0.1,0.2-0.2,0.3-0.4C660.8,66.5,661.2,66.8,661.2,67z M626.1,73.5l0.1,0.1
		C626.3,73.6,626.3,73.5,626.1,73.5c-0.1-0.8-0.1-1.3,0.4-1.8v-0.2c-0.2-1.4,1.7-1.7,1.2-3c-0.1-0.1,0.1-0.1,0.1-0.1l0.4-0.8
		c-0.2,0-0.3-0.1-0.6-0.1h-0.2c0.3-0.2,1.1-0.4,0.4-1.1h0.2c0.4,0.2,0.9-0.1,0.9-0.4s-0.1-0.6-0.6-0.9c0-0.4,0-0.7-0.2-1l-0.4,0.6
		c-0.6,1.4-1.3,2.9-1.9,4.5c-0.8,2.5-1.3,5.2-2.1,7.8c-0.1,1.1-0.1,2.4-0.2,3.6v0.4c0.1,0,0.4,0,0.6-0.1l0.1-0.6
		c0.2-1.2,0.2-2.4,0.6-3.4C625,75.7,625.7,74.6,626.1,73.5z M628.1,72.9c0,0-0.2,0.1-0.2,0.2c-0.2,1.1-0.9,2.3-1,3.5
		c-0.2,0.3-0.1,1-0.4,1.2c-0.9,0.8-0.6,1.9-0.7,2.8c-0.4,0.6-0.2,1.2-0.4,2c0,0.1-0.1,0.2-0.1,0.4h0.3c0.3-0.1,0.7-0.1,0.7-0.3
		c0.2-0.8,0.2-1.5,0.3-2.3c0.2-1.1,0.3-2.3,0.6-3.4C627.4,75.6,627.9,74.3,628.1,72.9z M626.4,84.8c-0.2-0.1-0.6-0.2-0.7-0.1
		c0,0,0,0.1-0.1,0.2c0,0.1,0.1,0.2,0.1,0.2C625.8,85.2,626,85.1,626.4,84.8z M628.4,72.2l-0.1-0.1c-0.1,0.2,0,0.6-0.1,0.8
		L628.4,72.2z M629.7,63.8c0.6,0,0.8-0.3,0.7-1c0.7-0.1,0.4-0.3,0-0.8l0.7-1.1c0.8,0.1,0.9-0.4,1.1-0.9l0.1-0.1
		c0.6-0.1,0.8-0.8,0.6-1.3h-0.6c0.3-0.2,0.7-0.6,1-0.7h0.2c-0.1,0,0,0.1-0.1,0.2h0.1v-0.2c0,0,0.4-0.1,0.4-0.2
		c-0.3-0.4,0.2-0.6,0.4-0.9v0.1l0.2-0.2l0.4-0.7l0.2-0.4c0.1,0,0-0.1,0-0.1v0.1l-0.6-0.3h-0.2l0.1-0.1c0.2-0.1,0.4-0.3,0.7-0.3
		c0.9,0.1,1.2-0.7,1.9-1.2c0.1-0.3-0.4-1.1,0.4-0.8c0-0.2,0.1-0.3,0.1-0.4c-0.1-0.1-0.1-0.3,0-0.6l0.6-0.7l0.1-0.1h-0.2
		c-0.7,0.4-1.4,0.9-2,1.5c-0.7,0.6-1.1,1.4-1.7,2.1c-2.1,2.5-4.1,5.1-5.4,7.9C628.7,63.3,628.9,63.8,629.7,63.8z M629.9,62.8h0.4
		c0,0.1,0,0.2-0.1,0.2l-0.2,0.3L629.9,62.8z M630.9,60.6v0.3c-0.1-0.1-0.1-0.1-0.2-0.1C630.8,60.8,630.8,60.7,630.9,60.6z M631,60.9
		h-0.1H631z M633.3,51.3h-0.2c0-0.1,0-0.2,0.1-0.2l1.2-1.5c0,0,0.1,0,0.1-0.1v0.2C634.2,50.1,633.6,50.8,633.3,51.3z M641.2,54.4
		l-4,4.7c-1.3,1.5-2.4,3.2-3.4,4.9c-0.1,0.6,0,0.6,0.3,0.6h1.8c0.1,0.1,0.2,0.1,0.4,0.2c-0.1,0-0.2,0-0.2,0.1c0,0,0.1-0.1,0.2-0.1
		c0.3-0.1,0.9-0.1,1.2-0.1c0.4-0.1,0.7-0.4,1-0.4c1.5-0.1,3.2-0.6,4.7-1.1c3.1-1.3,5.8-3.2,7.7-6c1.2-2.2,2.4-4.4,3.2-7
		c0.4-1.5,0.7-3.2,1.1-4.6c0.1-0.2,0-0.4-0.1-0.6l-0.4,0.1c-0.6,0.2-1.2,0.6-1.8,0.7c-1.9,0.7-3.6,1.4-5.1,2.6
		C645.5,50.2,643.2,52.2,641.2,54.4z M634.5,56.7c-0.1,0-0.2,0.1-0.2,0.1l-0.1-0.1H634.5z M635.6,54.3l-0.1-0.1l0.2-0.2v0.2
		C635.6,54.2,635.6,54.3,635.6,54.3z M652.3,86.6l-0.6,0.3v-0.2c0-0.1,0.1-0.2,0.2-0.2C652,86.5,652.3,86.5,652.3,86.6z M657.1,79.8
		c0.1-0.1,0.3-0.1,0.6-0.3l-0.1,0.7c-0.9,0.9-1.5,1.7-2.2,2.5c-0.3,0.3-1,0.3-1.5,0.4h-0.1c0.1,0,0.1-0.1,0.1-0.2
		C654.9,81.8,655.9,80.8,657.1,79.8z M656.2,78.2c-0.1,0-0.2,0.1-0.2,0.1c0,0.2,0.1,0.2,0.1,0.3l0.1-0.3V78.2z M659.6,76.5
		c0.2,0.2,0.2,0.3,0.2,0.3c-0.3,0.9-0.8,1.5-1.7,2.1c0-0.2,0-0.7,0.1-0.8l1.1-1.3C659.5,76.7,659.7,76.7,659.6,76.5z"/>
	<path class="st3" d="M703.1,39.8c-0.1,1.9-0.7,3.5-1.1,5.3c-0.8,2.6-2.4,4.6-3.8,6.8c-1.3,2.4-3,4.7-4.5,7.1
		c-0.4,0.7-0.7,1.5-1.1,2.1c-1.3,1.9-2.6,3.5-4,5.4c-0.2,0.3-0.3,1-0.7,1.3c-1.2,1.3-2.1,2.9-3.1,4.3c-0.4,0.6-1,1.1-1.4,1.5
		c-0.7,0.7-1.3,1.2-1.5,2.2c-0.1,0.6-0.7,1.1-1.1,1.5c-2.1,1.9-3.4,4.4-5.1,6.6c-1.1,1.4-2,3.1-3.1,4.5c-0.6,0.6-1.3,0.9-2.1,1.2
		c-0.2,0.1-0.7,0.2-0.7,0.3c-0.2,1.1-1.2,1.2-1.9,1.2c-0.8,0-1.5-0.6-2.3-0.8l-0.3-0.3l-2.1-3c-0.2-0.3-0.4-0.7-0.4-1
		c0.1-1.4,0.2-2.9,0.4-4.3c0.4-2.3,1-4.7,1.5-7.1c1-4.2,2-8.4,2.9-12.7c0.7-2.6,1.1-5.3,1.8-7.9c0.2-1.2,0.7-2.3,0.9-3.5
		c0.2-0.6,0.2-1,0.2-1.5s-0.1-1.2,0.1-1.7c0.3-1.7,0.9-3.2,1.3-4.9c0.1-0.3,0.1-0.7,0-1c-0.2-1,0.1-1.2,1.1-1.2
		c2.9,0.3,4.3,2.4,5.6,4.4c0.7,1,0.2,2,0,3c-0.7,2.4-1.4,4.9-2,7.4c-0.9,3.1-1.7,6.3-2.4,9.4c-0.3,1.1-0.8,2.2-1,3.3
		c-0.4,1.8-0.9,3.6-1.2,5.4c-0.2,0.8-0.4,1.5-0.6,2.3v0.7c0.1-0.1,0.3-0.2,0.4-0.4l3.1-4.3c0.6-0.8,1.1-1.4,1.8-2.2
		c0.1-0.1,0.3-0.1,0.4-0.1c0,0.1,0,0.3-0.1,0.4c-1.3,2-2.9,3.9-4.2,5.8c-0.4,0.7-0.8,1.4-1.2,2.1c-0.4,0.6-0.4,0.6-0.1,1
		c0,0.1-0.1,0.2-0.1,0.3c-0.1,0.2-0.3,0.3-0.4,0.6c-0.1,0.1-0.1,0.2-0.2,0.4h0.6c0.3-0.3,0.7-0.6,1.1-0.9h-0.1c0.3,0,0.7-0.1,1-0.2
		c0.1-0.1,0.2-0.3,0.3-0.6h-0.6c-0.6,0-1.2,0.2-1.4-0.7c0.1-0.1,0.3-0.1,0.4-0.2c0.2-0.7,0.8-0.8,1.3-0.8v0.1
		c0.3-0.1,0.8-0.6,0.7,0.2l0.4,0.1c0.4-0.2,0.8-0.4,1.2-0.6c0,0,0.1,0.1,0.1,0.2l0.1-0.1c-0.1-0.1-0.2-0.1-0.2-0.1
		c0-0.2,0-0.6-0.1-0.8l-1.1-1.3c-0.1,0,0-0.2,0-0.3h0.3c0.6,0.8,0.7,0.3,0.9-0.2c-0.1-0.1-0.2-0.3-0.3-0.6h0.4l0.3-0.2h0.2
		c0.1,0.2,0.2,0.3,0.3,0.4h0.2c0,0,0.1,0.1,0.1,0.2l0.1-0.1c-0.1-0.1-0.2-0.1-0.2-0.1l0.4-0.8c0.2-0.3,0.6-0.7,0.8-0.9
		c-0.1-0.1-0.1-0.1-0.2-0.1c-0.1,0.3-0.3,0.6-0.6,0.9v0.1c-0.3,0-0.7,0.1-1,0.1c0.3-0.6,0.9-1,0.4-1.8l0.8,0.1
		c-0.1-0.1-0.1-0.3-0.2-0.4c-0.4-0.6-0.2-0.9,0.2-1.2c0.2-0.1,0.4-0.4,0.7-0.6c0.4,0,0.8,0.1,1.2,0.1c-0.1-0.1-0.1-0.1-0.1-0.2
		c-0.4-0.7-0.3-1.3,0.4-1.3c1,0,0.7-1,1.1-1.3l-0.7,0.4c-0.2-0.7,0.1-0.8,0.7-0.9c0.1-0.7,0.6-0.8,1.1-0.8c-0.6-0.9-0.3-1.5,0.9-2.4
		c0-0.1,0-0.3,0.1-0.6c0-0.2,0.2-0.4,0.3-0.7c-0.2,0.1-0.4,0.2-0.7,0.2c-0.1,0.1-0.2,0-0.2,0v-0.3c0.4-0.4,0.7-1.2,1.4-1.2
		c0.3,0,0.8-0.7,0.8-0.8c-0.6-0.7,0-1.2,0.3-1.5c2.1-3.1,4.2-6.1,6.4-9c1.7-2.3,3.4-4.5,5.1-6.7c0.8-1.1,1.5-2.3,2.4-3.4
		c0.3-0.6,1-0.9,1-1.3c0-1.1,0.4-0.8,1-0.6C702.5,37.2,703.3,38.2,703.1,39.8z M666.9,77.5c-0.1-0.1-0.1-0.2-0.2-0.4
		c-0.1,0.2-0.1,0.3-0.1,0.3c0,0.1,0.1,0.1,0.1,0.2C666.7,77.6,666.9,77.5,666.9,77.5z M669.2,66c-0.1-0.1-0.1-0.2-0.2-0.2
		c0,0-0.1,0.1-0.2,0.1c0.1,0.1,0.1,0.2,0.2,0.2S669.1,66.1,669.2,66z M671,84.1c-0.1-0.1-0.2-0.1-0.2-0.2c-0.1,0.1-0.1,0.1-0.1,0.2
		l0.2,0.2C670.9,84.3,671,84.2,671,84.1z M673.8,79.6l-0.6-0.3c-0.2-0.1-0.3,0-0.7-0.1c0.1,0.2,0.2,0.6,0.4,0.8l-1.9,1
		c-0.1,0.1-0.1,0.3-0.2,0.6c0.2,0,0.3-0.1,0.4-0.1c0.6-0.2,1-0.9,1.9-0.7C673.4,80.7,673.7,80,673.8,79.6z M672.9,81.6l-0.4-0.2
		c-0.2,0.1-0.3,0.3-0.6,0.4c0.1,0.1,0.2,0.2,0.3,0.2L672.9,81.6z M673.9,75.4c0.1,0.1,0.2,0.3,0.3,0.6h-0.9
		C673.6,75.7,673.7,75.5,673.9,75.4z M673.6,76.8l0.1,0.7C673.8,77.1,674.1,76.8,673.6,76.8z M674.4,74.9l-0.4,0.3
		c0.1-0.1,0.2-0.3,0.3-0.6C674.2,74.8,674.4,74.9,674.4,74.9z M675.5,73.4c0-0.1-0.1-0.2-0.2-0.3c0.1-0.1,0.2-0.1,0.3-0.1
		C675.6,73,675.6,73.3,675.5,73.4z M677,71.2c-0.2,0.4-0.6,0.8-0.8,1.2C676.3,71.9,676.2,71.2,677,71.2z M677,74.6h-0.4v0.2
		c0.1,0.1,0.2,0.2,0.4,0.3V74.6z M677.6,74.3c0.3-0.2,0.7-0.3,1-0.4c-0.1-0.1-0.3-0.2-0.6-0.3L677.6,74.3c0,0.1-0.1,0.2-0.1,0.3
		s0,0.3,0.1,0.4c0-0.1,0.2-0.2,0.2-0.3C677.8,74.5,677.7,74.4,677.6,74.3z M678,68.1c0.1,0,0.3-0.1,0.6-0.2
		c-0.2,0.1-0.4,0.2-0.6,0.3V68.1z M678.4,67.9l0.3-0.3l-0.2,0.3H678.4z M679.5,70.5c0-0.2-0.1-0.4-0.2-0.7l-0.8,1.3
		c-0.1,0,0.1,0.1,0.1,0.2C679,71.2,679.9,71.5,679.5,70.5z M679,68.5c-0.1,0.1-0.2,0.2-0.2,0.3l-0.1-0.1
		C678.8,68.7,678.9,68.6,679,68.5z M680.1,65.9l-1.3,1.7c0.3-0.8,0.9-1.5,1.3-2.2V65.9z M679.2,72.4c-0.2,0-0.3,0-0.4-0.1l0.2,0.3
		L679.2,72.4z M681.2,68.3l-1.5,1c0.1,0.3,0.1,0.6,0.2,0.8s0.2,0.3,0.2,0.4c0.1-0.1,0.1-0.3,0.2-0.4l0.9-1.7V68.3z M682.1,63.2l-2,2
		c0.6-0.7,1.1-1.4,1.7-2.2c0.1,0,0.2,0,0.3-0.1V63.2z M686.6,61.2c-0.7,0.8-1,1.9-2.3,0.9c-0.1-0.1-0.6,0.3-0.9,0.4
		c0.2,0.1,0.4,0.2,0.6,0.3l0.3,0.3c-0.2,0.1-0.4,0.3-0.7,0.3c-1.1-0.2-1.3,0-1,1.1c0.2,0.8,0.1,1.2-0.6,1.7
		c-0.1,0.2-0.1,0.4-0.2,0.6c-0.2,0.3-0.6,0.6-0.8,0.8c0.3,0,0.6-0.1,0.9-0.1v0.1c0-0.1,0.1-0.2,0.2-0.2c-0.1,0-0.2,0.1-0.2,0.1
		c0-0.3,0.1-0.8,0.1-1.2c0.8,0,1.1-0.8,1.8-1c0.6-0.3,1.5-1,1.4-2.1C686.6,63.1,686.3,62,686.6,61.2z M685.6,61.6l0.6-0.2
		c-0.2,0-0.3,0-0.6,0.1V61.6z"/>
	<path class="st3" d="M730.6,67c-0.2,1.9-0.1,3.8-0.4,5.4c-0.3,1.7-1.1,2.8-2.3,3.9c-0.1,0-0.3,0.2-0.3,0.6
		c-0.3,0.6-0.7,1.2-1.1,1.8c-0.9,1.2-2.1,2.3-3.3,3.2l-1.9,1.5c-0.3,0.1-0.3,0.3-0.3,0.4c0.2,0,0.6,0.1,0.7,0.1
		c0.3,0,0.7-0.1,0.9-0.1c-0.2,0.2-0.3,0.7-0.7,0.8l-1.3,0.9l-0.4,0.9l-1.1,1l-0.3,0.3c0.1,0.1,0.4,0.1,0.6,0.1
		c0.4-0.2,0.9-0.3,1.2-0.6h0.3v0.2l-0.3,0.3c-1.2,1.1-2.6,2.3-4.2,3.1c-1.7,1.2-3.5,1.9-5.6,2.6c-0.6,0.3-1.3,0.1-2.1,0h-0.8
		c-1.8,0.2-3.5-0.3-5.2-0.8c-2.2-0.4-3.4-2-5-3.2c-1-0.7-2-1.7-2.9-2.4c-1.4-1.2-2-2.6-2.4-4.1c-1.1-2.4-1.2-4.9-0.8-7.2
		c0.3-2.3,1-4.5,1.3-6.8v-0.1l2-5.1l1.7-3.5c0.2-0.3,0.6-0.4,0.6-0.8c0.2-0.3,0.3-0.7,0.4-1c0.1-0.1,0.1-0.3,0.2-0.4l1.3-1.8
		c0.2-0.1,0.2-0.6,0.4-0.7l0.4-0.8c0.6-0.4,1-1,1.4-1.7l-0.4-0.1c0.2-0.2,0.4-0.7,0.7-0.7c0.7,0.1,1-0.6,1.3-0.9l1.3-1.8
		c0.2-0.2,0.9-0.4,0.4-1c0-0.1,0.3-0.3,0.4-0.4c2.8-2.6,5.6-5.4,9.3-7.2c1.4-0.9,3.3-1.2,5.2-1.7c2.1-0.8,4,0.1,5.7,1.2l1.1,0.3
		c0.9,0.3,1.5,0.7,1.8,1.5c0.2,0.2,0.4,0.2,0.8,0.4c0.8,0.6,1.2,1.2,1.8,2.4c1,2.9-0.7,5-1.2,7.4l-0.4,1.4c-0.8,1.4-1.3,3.1-2,4.5
		c-0.9,1.8-1.8,3.6-3,5c-1.2,1.3-2.8,2.3-4.2,3c-1.3,0.8-2.8,1-4.3,1.3c-1.4,0.2-3,0.3-4.5,0.3c-0.9,0-1.8-0.2-2.5-0.3
		c-1.9-0.4-3.8-0.7-5.6-1.2c-0.8-0.1-1.1,0.1-1.4,0.7c-0.4,1.5-1.1,3-1.7,4.4l-1,3.5c-0.1,0.4-0.4,0.8-0.7,1.3
		c0,0.1-0.1,0.2-0.1,0.3l-0.2,2.9c-0.3,2.8-0.3,5.7,1.9,8.3c0.8,1,2,1.7,3.4,1.5c3.5-0.2,6.2-1.4,8.9-3.1c0.8-0.4,1.5-0.9,2.3-1.2
		c0.4-0.3,1.1-0.3,1.8-0.6c1.4-0.7,3-1.4,4.4-2.2c1.3-0.9,2.4-1.8,3.8-2.6c0.2-0.2,0.3-0.8,0.6-1.1c-0.4,0.1-0.8,0.3-1,0.7l-3.9,2.3
		c-1,0.8-2.2,1.4-3.4,2.3c-0.2,0-0.3,0-0.4,0.1l0.2-0.6c1.2-0.7,2.4-1.3,3.5-2.2c0.6-0.7,1.5-1.2,2-2.2c0.4-1.1,1.5-1.8,2.2-2.4
		c2.2-2.3,3.5-5.1,5-7.9l0.8-2.3c0.1-0.1,0.2-0.2,0.3-0.4C730.2,66.5,730.6,66.8,730.6,67z M695.5,73.5l0.1,0.1
		C695.6,73.6,695.6,73.5,695.5,73.5c-0.1-0.8-0.1-1.3,0.4-1.8v-0.2c-0.2-1.4,1.7-1.7,1.2-3c-0.1-0.1,0.1-0.1,0.1-0.1l0.4-0.8
		c-0.2,0-0.3-0.1-0.6-0.1H697c0.3-0.2,1.1-0.4,0.4-1.1h0.2c0.4,0.2,0.9-0.1,0.9-0.4s-0.1-0.6-0.6-0.9c0-0.4,0-0.7-0.2-1l-0.4,0.6
		c-0.6,1.4-1.3,2.9-1.9,4.5c-0.8,2.5-1.3,5.2-2.1,7.8c-0.1,1.1-0.1,2.4-0.2,3.6v0.4c0.1,0,0.4,0,0.6-0.1l0.1-0.6
		c0.2-1.2,0.2-2.4,0.6-3.4C694.4,75.7,695.1,74.6,695.5,73.5z M697.5,72.9c0,0-0.2,0.1-0.2,0.2c-0.2,1.1-0.9,2.3-1,3.5
		c-0.2,0.3-0.1,1-0.4,1.2c-0.9,0.8-0.6,1.9-0.7,2.8c-0.4,0.6-0.2,1.2-0.4,2c0,0.1-0.1,0.2-0.1,0.4h0.3c0.3-0.1,0.7-0.1,0.7-0.3
		c0.2-0.8,0.2-1.5,0.3-2.3c0.2-1.1,0.3-2.3,0.6-3.4C696.8,75.6,697.3,74.3,697.5,72.9z M695.8,84.8c-0.2-0.1-0.6-0.2-0.7-0.1
		c0,0,0,0.1-0.1,0.2c0,0.1,0.1,0.2,0.1,0.2C695.2,85.2,695.4,85.1,695.8,84.8z M697.7,72.2l-0.1-0.1c-0.1,0.2,0,0.6-0.1,0.8
		L697.7,72.2z M699.1,63.8c0.6,0,0.8-0.3,0.7-1c0.7-0.1,0.4-0.3,0-0.8l0.7-1.1c0.8,0.1,0.9-0.4,1.1-0.9l0.1-0.1
		c0.6-0.1,0.8-0.8,0.6-1.3h-0.6c0.3-0.2,0.7-0.6,1-0.7h0.2c-0.1,0,0,0.1-0.1,0.2h0.1v-0.2c0,0,0.4-0.1,0.4-0.2
		c-0.3-0.4,0.2-0.6,0.4-0.9v0.1l0.2-0.2l0.4-0.7l0.2-0.4c0.1,0,0-0.1,0-0.1v0.1l-0.6-0.3h-0.2l0.1-0.1c0.2-0.1,0.4-0.3,0.7-0.3
		c0.9,0.1,1.2-0.7,1.9-1.2c0.1-0.3-0.4-1.1,0.4-0.8c0-0.2,0.1-0.3,0.1-0.4c-0.1-0.1-0.1-0.3,0-0.6l0.6-0.7l0.1-0.1h-0.2
		c-0.7,0.4-1.4,0.9-2,1.5c-0.7,0.6-1.1,1.4-1.7,2.1c-2.1,2.5-4.1,5.1-5.4,7.9C698.1,63.3,698.3,63.8,699.1,63.8z M699.3,62.8h0.4
		c0,0.1,0,0.2-0.1,0.2l-0.2,0.3L699.3,62.8z M700.3,60.6v0.3c-0.1-0.1-0.1-0.1-0.2-0.1C700.2,60.8,700.2,60.7,700.3,60.6z
		 M700.4,60.9h-0.1H700.4z M702.7,51.3h-0.2c0-0.1,0-0.2,0.1-0.2l1.2-1.5c0,0,0.1,0,0.1-0.1v0.2C703.6,50.1,703,50.8,702.7,51.3z
		 M710.5,54.4l-4,4.7c-1.3,1.5-2.4,3.2-3.4,4.9c-0.1,0.6,0,0.6,0.3,0.6h1.8c0.1,0.1,0.2,0.1,0.4,0.2c-0.1,0-0.2,0-0.2,0.1
		c0,0,0.1-0.1,0.2-0.1c0.3-0.1,0.9-0.1,1.2-0.1c0.4-0.1,0.7-0.4,1-0.4c1.5-0.1,3.2-0.6,4.7-1.1c3.1-1.3,5.8-3.2,7.7-6
		c1.2-2.2,2.4-4.4,3.2-7c0.4-1.5,0.7-3.2,1.1-4.6c0.1-0.2,0-0.4-0.1-0.6l-0.4,0.1c-0.6,0.2-1.2,0.6-1.8,0.7
		c-1.9,0.7-3.6,1.4-5.1,2.6C714.8,50.2,712.6,52.2,710.5,54.4z M703.9,56.7c-0.1,0-0.2,0.1-0.2,0.1l-0.1-0.1H703.9z M705,54.3
		l-0.1-0.1l0.2-0.2v0.2C705,54.2,705,54.3,705,54.3z M721.7,86.6l-0.6,0.3v-0.2c0-0.1,0.1-0.2,0.2-0.2
		C721.4,86.5,721.7,86.5,721.7,86.6z M726.5,79.8c0.1-0.1,0.3-0.1,0.6-0.3l-0.1,0.7c-0.9,0.9-1.5,1.7-2.2,2.5
		c-0.3,0.3-1,0.3-1.5,0.4h-0.1c0.1,0,0.1-0.1,0.1-0.2C724.3,81.8,725.3,80.8,726.5,79.8z M725.5,78.2c-0.1,0-0.2,0.1-0.2,0.1
		c0,0.2,0.1,0.2,0.1,0.3l0.1-0.3V78.2z M729,76.5c0.2,0.2,0.2,0.3,0.2,0.3c-0.3,0.9-0.8,1.5-1.7,2.1c0-0.2,0-0.7,0.1-0.8l1.1-1.3
		C728.9,76.7,729.1,76.7,729,76.5z"/>
	<path class="st3" d="M764.4,13.7l-1.3,3.4c-1.5,3.8-3.1,7.6-4.6,11.6l-4.2,10.6c0,0.1-0.1,0.2-0.1,0.2c-1.7,1.7-1.4,4.1-2.6,5.8
		c-0.2,0.2-0.3,0.6-0.2,0.9l-2.1,5.4c-0.1,0.3-0.3,0.6-0.6,0.9c-0.3,0.3-0.9,0.7-0.3,1.3c0,0.3-0.6,0.7-0.8,1.1
		c-0.2,1-0.4,2-0.8,2.9c-0.4,1-1,2.1-1.4,3c-0.3,0.8-0.8,1.4-1.1,2.3c0-0.6-0.2-0.7-0.7-0.4c-0.1,0.1-0.1,0.3-0.1,0.6l0.8-0.1
		l-1.2,3.5c-0.3,0-1,0-1.2,0.2c-0.3,0.8-1,1.4-0.4,2.3c0.3,0,0.9-0.2,0.6-0.9c-0.1-0.3,0.1-0.7,0.3-1c0.2-0.2,0.6-0.6,0.8-0.7
		c-0.4,1.4-0.6,3-1.2,4.2c-1.1,1.8-1.4,3.6-2.2,5.5c-1,2.1-1.7,4.2-2.3,6.3c-0.9,3-1.7,5.8-2.4,8.8c-0.3,1.1-0.6,2.1-1.1,3.2
		c-0.2,0.3-0.8,0.8-1.3,1c-0.8,0.2-1.5,0.6-2.2,0.3c-1.3-0.7-2.5-1.4-3.8-2.3c-1.1-0.6-1.1-1.2-0.8-2.5c0.7-1.8,1.3-3.6,1.9-5.3
		l1.5-4.9c1-2.9,2.2-5.6,3.3-8.5c1-2.3,1.8-4.5,2.9-6.8c0.1-0.3,0.1-1,0.6-0.6c0.3-0.3,0.6-0.7,0.7-1.1c0.8-2,1.5-3.8,2.2-5.6
		c0.4-1.3,0.8-2.9,1.3-4.3c0.4-1.2,1-2.3,1.3-3.5c0.2-0.6,0.3-1.1,0.3-1.7l0.8-1.3h0.1c-0.6-0.6,0.1-1.2,0.3-1.8l4.4-12.2l5.5-16.2
		c1.1-2.8,2-5.4,2.9-8.2l0.7-2.2c0.2-0.7,0.7-0.8,1.2-0.6c1.9,0.6,3.5,1,5.3,1.8C765.5,9.4,765.7,11.4,764.4,13.7z M732.2,83.5
		l-0.1-0.2l-0.4,0.7c-0.1,0-0.1,0.1-0.1,0.1c0,0.1,0,0.4,0.1,0.6c0-0.1,0.1-0.3,0.2-0.6L732.2,83.5z M732.8,82.1
		c-0.1,0-0.1,0-0.2-0.1c0,0.1,0,0.1-0.1,0.3l0.2-0.1L732.8,82.1z M733.8,75.5l-1,2.4c-0.1,0.1,0,0.3,0,0.6c0.1-0.1,0.3,0,0.3-0.1
		C733.4,77.5,734.5,76.7,733.8,75.5z M734.3,79.9l-0.3-0.2c-0.1,0.2-0.4,0.2-0.3,0.6c0,0.2,0.1,0.2,0.3,0.6L734.3,79.9z M750.3,31.9
		c0,0,0-0.1-0.1-0.1c0,0-0.1,0-0.1,0.2c-0.2,0.3-0.3,0.8-0.4,1.1c-0.6,1.5-1.2,3.1-1.8,4.7l-0.3,0.8l-0.4,1.3
		c-0.6,1.2-1.1,2.5-1.4,3.9l-2.1,5.4c-0.4,1.5-1.2,3.1-1.9,4.5l-1.3,3.6l-0.3,0.8c0.1,0.4,0,0.8-0.2,1.2l-2.5,6.2
		c-0.9,2.4-1.7,5-2.6,7.3c-0.1,0.9-0.3,1.5-0.4,2.4c0.3-0.6,0.7-1,1.1-1.5c0.1-0.3,0.3-0.8,0.6-1h0.1v0.1c0,0,0,0,0.1,0l-0.2,1.3
		c-0.3,1.2-0.8,2.1-1.1,3.3c-0.7-0.2-0.8,0.4-0.9,0.9c0,0.3,0.1,0.6,0.1,0.8c0,0,0.4,0,0.6-0.1c0.1-0.2,0.1-0.4,0.2-0.6
		c0-0.4-0.1-0.8,0-1l0.4,0.2v0.1l0.4-1.3c0.3-0.7,1-1.1,1.1-1.5c-0.1-1.3,0.6-2.3,1-3.4c0-0.3,0.2-0.8,0.4-1l0.2,0.2h0.3l0.2-0.2
		c-0.3-0.1-0.4-0.1-0.4-0.2l-0.3,0.2c0.1-0.4,0.4-0.8,0.6-1.2c0.2-1.2,0.6-2.4,1.5-3.3l0.2-0.6c-0.7-0.7,0.2-0.6,0.3-0.7
		c-0.1-0.4-0.2-0.9-0.1-1.3c0.3-0.7,0.6-1.7,1.1-1.8c1.3-0.6-0.6-1.3,0.3-1.9c0.1,0,0.1-0.2,0-0.3c0.2-0.6,0.4-1,0.8-1.5l1.5-4.1
		c0-0.3,0.2-0.8,0.4-0.8c0.8-0.3,0.8-0.7,0.6-1.3v-0.2l0.9-3l2.5-6.8v-1.1l-0.6,0.9c-0.1,0-0.1,0.1-0.2,0.3
		c-0.1,0.1-0.4,0.2-0.7,0.6l-0.2-0.4c0.1-0.2,0.3-0.4,0.4-0.9l0.4-1.4c0,0-0.1-0.2-0.1-0.3c0.3-0.6,0.8-1,0.9-1.4
		c0.6-1.5,1-3.2,1.3-4.7C750.3,32.7,750.4,32.4,750.3,31.9z M736,72.8l-0.1-0.1h-0.1h-0.1c-0.6-1,0.3-1.3,0.8-1.9
		c-0.2-1.3,0.7-2.2,1.3-3.4l0.1-0.4l0.3-1c0.2-0.3,0.6-0.7,0.8-1.1c0,0-0.1-0.2-0.1-0.3l0.7-2c0.1-0.1,0.3-0.1,0.7-0.3
		c-0.1,0.3-0.1,0.4-0.2,0.6c-0.6,1.3-0.9,2.6-1.3,3.8l-0.8,1.5h0.1v0.3l-1.4,4C736.6,72.6,736.2,72.7,736,72.8z M740.9,60.2
		c0,0.2,0.1,0.3,0.1,0.4c-0.2,0.3-0.4,0.7-0.7,1.1c-0.1,0.1-0.3,0-0.6,0.1c0.1-0.1,0.1-0.3,0.2-0.4L740.9,60.2z M740.5,70.6
		l-0.6-0.1l-0.2,0.3c0.1,0.1,0.3,0.2,0.4,0.2L740.5,70.6z M741.2,59l0.2-1.2l0.3,1.1C741.7,59,741.3,59,741.2,59z M742,56.7l0.4,0.1
		c0,0.2,0,0.3-0.1,0.6c-0.2,0.2-0.7,0.3-0.9,0.4l0.2-0.7L742,56.7z M743,54.5c0,0.2,0,0.6-0.1,0.9c0.1,0.2,0,0.6-0.2,0.9
		c0,0-0.2-0.1-0.2-0.2v0.1c0-0.1-0.1-0.2-0.2-0.2l0.2-0.8h0.1C742.6,55.1,742.8,54.6,743,54.5z M742.9,64.7h-0.1c0,0,0,0.1-0.1,0.2
		c0,0,0.1,0,0.2,0.1V64.7z M743,53.2l-0.1,0.1C742.9,53.2,743,53.2,743,53.2z M743,53.5c0-0.1-0.1-0.2-0.1-0.2l0.2,0.1
		c0.1,0.1,0.1,0.2,0.1,0.3c0,0-0.1,0-0.2,0.1V53.5z M743,53.2c0.2-0.1,0.3-0.2,0.6-0.2C743.5,53.5,743.2,53.2,743,53.2z M744.5,48.9
		l0.4-0.2c0,0.4-0.1,0.8-0.3,1.2l0.1,0.1c-0.3,0.9-0.3,2.1-1.2,2.9c0.3-1,0.4-2,0.8-2.9l0.3-1.1H744.5z M743.5,52.9V53V52.9z
		 M745.5,59.7c-0.1-0.1-0.2-0.4-0.4-0.3l-0.3,0.2c-0.2,0.6-0.3,1.2-0.4,1.8l0.1,0.4c0.1,0,0.2,0,0.3-0.2L745.5,59.7z M746.1,58.3
		l-0.4-0.3c-0.2,0.2-0.4,0.3-0.6,0.8c0.1,0,0.4,0.1,0.3,0C745.7,58.6,745.8,58.5,746.1,58.3z M745.7,47.4l-0.6,1
		C745.3,47.9,745.2,47.6,745.7,47.4z M745.2,48.4v0.1V48.4z M746.2,46.5c0.1,0.3,0.1,0.9-0.4,1c0-0.1-0.1-0.2-0.1-0.2
		c0.1-0.3,0.1-0.8,0.1-1.1C746,46.2,746.2,46.3,746.2,46.5z M746.8,55.5l-0.2-0.4c0,0.1-0.2,0.2-0.2,0.3c-0.1,0.3-0.2,0.6-0.2,1
		l-0.2,0.9c0.2-0.4,0.4-0.6,0.7-0.9L746.8,55.5z M746.6,43.8c0.1,0.1,0.2,0.1,0.3,0.1c0,0.1,0,0.2-0.1,0.2l-0.3,1.3
		c0,0.1-0.1,0.3-0.2,0.4c-0.1-0.1-0.2-0.4-0.2-0.4C746.1,44.8,746.5,44.4,746.6,43.8z M746.9,42.6c0.1,0.1,0.1,0.1,0.1,0.2
		c0,0.2-0.1,0.3-0.1,0.4l-0.1-0.2C746.8,42.9,746.8,42.8,746.9,42.6z M749.9,38.6l0.3-0.9c-0.1-0.3-0.2-0.6-0.2-0.8
		c-0.1,0.2-0.3,0.3-0.4,0.6l-0.1,1.4c0-0.2,0.3-0.3,0.6-0.3H749.9z"/>
	<path class="st3" d="M787.4,59.8c0,0.3-0.1,0.8-0.2,1.1c-0.1,1.1-0.2,2.1-0.4,3.2c-0.4,1.8-1.1,3.5-1.7,5.3
		c-0.3,1.1-0.6,2.2-0.9,3.3c-0.1,0.3-0.3,0.6-0.6,0.8c0,0.1-0.2,0.2-0.2,0.3c-0.2,1.7-1.4,2.8-2.2,4.2c-0.2,0.4-0.7,0.7-0.9,1
		c-0.7,0.9-1.2,1.9-1.9,2.6c-0.8,1-1.8,1.9-2.6,2.8c-0.4,0.7-0.7,1.3-1.1,2.1c-1.4,1-3,2.1-4.5,3.1l-0.3,0.8
		c0.3,0.1,0.6,0.1,0.9,0.1c0,0.1,0.1,0,0.2,0l0.9-0.3c-0.2,0.3-0.3,0.7-0.7,0.8c-0.8,0.6-1.4,1.3-2.3,1.5c-0.9,0.3-1.7,0.9-2.5,1.1
		c-1.1,0.3-2.4,0.3-3.6,0.1c-1.8-0.3-3.6-0.8-5.3-1.5c-2.2-1.1-4.2-2.4-5.5-4.5c-2.2-3.4-3.2-7.1-3.3-11.1c0-3.9,0.8-7.6,2.2-11.3
		c1.2-3.4,2.5-6.8,4.1-10c2.1-4.4,5.5-7.9,9-11.3c1-1.1,2.2-2,3.5-2.9c1.1-0.7,2.4-1.2,3.6-1.8c1-0.6,1.9-0.1,2.8,0.3
		c0.4,0.3,0.9,0.3,1.4,0.2c0.4-0.1,0.9-0.1,1.4-0.2c0.1,0,0.2,0.1,0.3,0.2l-0.3,0.3c-0.4,0-0.9,0-1.3,0.1c-0.2,0.1-0.2,0.3-0.4,0.4
		c0.2,0.1,0.3,0.2,0.6,0.2c0.7-0.1,1.2-0.3,1.9-0.4c1.1-0.2,1.5,0.1,1.4,1.2c-0.1,1-0.2,2.1-0.4,3.1c0,0.2-0.1,0.6-0.3,0.7
		c-0.9,0.6-1.4,1.3-2.1,2.2c-0.2,0.3-0.6,0.7-1,0.9c-0.8,0.3-1.3,1-1.9,1.5c-2,2.1-3.9,4-5.7,6.1c-0.7,0.7-1.1,1.4-1.7,2.2
		c-2.6,3.8-4.3,8.1-5.7,12.4c-0.8,2.1-1.2,4.2-1.5,6.4c-0.6,3.9-0.4,7.6,1.4,11.1c0.1,0.3,0.3,0.6,0.6,0.9c0.4,0.8,1,0.7,1.8,0.3
		c3-1.5,5.2-3.9,7.4-6.4c2.2-2.4,4-5.2,5.6-8.1c2.1-3.8,3.6-7.7,4.7-11.8c0.9-3.9,0.7-7.6-1-11.3c-0.2-0.4-0.3-0.8-0.4-1.1
		c-0.3-1,0.1-1.4,1.1-1.4c2.5,0,4,1.4,4.9,3.5c0.7,1.7,1.1,3.4,0.7,5.2c-0.1,0.2-0.2,0.6-0.3,0.7c-0.2,0.1-0.6,0.2-0.8,0.2
		c0-0.2-0.1-0.4-0.1-0.7v-0.7c0.1-0.4-0.2-0.7-0.7-0.7c0.1-1.2-0.1-2.4-0.9-3.4c-0.1-0.1-0.2-0.2-0.3-0.2c-0.1,0.1-0.2,0.2-0.2,0.4
		c-0.1,0.1-0.1,0.3-0.1,0.6c0.4,1.8,0.2,3.4,0.1,5.1c-0.1,0.7,0.2,1.2-0.4,1.8c-0.1,0.1,0.1,0.8,0,1.1c-0.7,2.2-1.3,4.4-2.1,6.5
		c-0.6,1.4-1.2,2.8-2,4.1c-1,1.8-2,3.4-3.1,5.1c-0.9,1.2-1.9,2.3-2.9,3.5c-0.1,0.1-0.2,0.4-0.3,0.8c0.2-0.1,0.4-0.1,0.7-0.1
		c1.5,0.4,2.3-0.8,3.1-1.7c2.1-2.2,3.5-4.7,4.9-7.4c0.3-0.7,0.9-1.3,1.1-2c0.8-1.8,1.3-3.4,2-5.2c0-0.2-0.1-0.3,0-0.6
		c0.2-0.8,0.6-1.7,0.9-2.4h-0.1c0.2-1,0.3-2,0.6-3c0-0.1,0.2-0.2,0.3-0.4c0.1,0.1,0.1,0.3,0.2,0.4c0.3,1,0.1,2-0.3,3
		c0,0.2,0.1,0.4,0.1,0.7c-0.1,0.7-0.3,1.3-0.4,2c-0.3,1.3-0.8,2.8-1.1,4.2c-0.1,0.2-0.1,0.4-0.1,0.8l0.7-0.7
		c0.4-0.6,0.9-1.2,1.2-1.9c0.6-1.1,1.2-2.1,1-3.4l-0.1-0.4c0.9-1.9,0.7-3.8,0.6-5.7c-0.2-1.3-0.3-2.8-0.6-4.2c0-0.2-0.2-0.6-0.2-0.9
		c-0.1-0.3,0-0.6,0.1-0.9c1.2,0.6,1.7,1.4,1.8,2.8C787.1,56.8,787.3,58.4,787.4,59.8z M753.6,68.4c-0.1-0.2-0.2-0.4-0.3-0.6
		c-0.2,0.1-0.3,0.3-0.4,0.6l-0.7,2.2c-0.3,1.9-0.7,3.9-0.9,5.8c-0.1,0.1,0,0.2,0.1,0.3c0-0.1,0.2-0.2,0.2-0.3
		c0.3-0.9,0.7-1.9,0.9-2.8l0.7-3.4C753.2,69.6,753.5,69.1,753.6,68.4z M758,79.8c-0.1-0.1-0.1-0.2-0.1-0.2c-0.1,0.1-0.2,0.1-0.2,0.1
		c0,0.1,0,0.1,0.1,0.2C757.8,79.9,757.9,79.8,758,79.8z M772.3,84.1c-0.2,0-0.3-0.1-0.4-0.1l-0.2,0.3c0.1,0.1,0.2,0.1,0.2,0.1
		C772,84.4,772.1,84.3,772.3,84.1z M778.4,78.9c-0.1-0.1-0.1-0.1-0.1-0.2c-0.2,0.1-0.3,0.1-0.4,0.2c-1,0.9-1.9,1.8-2.8,2.6
		c-0.2,0.2-0.3,0.6-0.4,0.9c0,0.2,0.1,0.4,0.1,0.7c0.2-0.1,0.6-0.1,0.7-0.3c0.8-0.8,1.5-1.5,2.2-2.4
		C777.9,79.9,778.2,79.3,778.4,78.9z M776.6,85.3c0.1-0.1,0.3-0.1,0.6-0.2c-0.1,0.2-0.1,0.4-0.2,0.6c-0.3,0.3-0.7,0.8-1.1,1.1
		c-0.2,0.1-0.6-0.1-0.8-0.1C775.5,86.2,776.1,85.7,776.6,85.3z M778.2,83.6c0.1,0,0.1-0.1,0.2-0.1c0,0.1-0.1,0.1-0.1,0.2l-0.2,0.2
		c0,0-0.1,0-0.1-0.1C778.1,83.9,778.1,83.7,778.2,83.6z M779.4,82.4c-0.1,0.1-0.1,0.2-0.2,0.2v-0.1c0-0.1,0-0.1,0.1-0.2
		C779.3,82.4,779.4,82.4,779.4,82.4z M782.5,71.3l-1.7,2.5c-0.1,0.1,0,0.2,0,0.3h0.3c0.3-0.6,0.8-1.1,1.1-1.8
		C782.5,72,783.1,71.7,782.5,71.3z M782.7,58.3c0.2-0.3,0.3-0.8,0.6-1.2v0.1c-0.1,0.4-0.2,0.8-0.4,1.2L782.7,58.3z M783.8,63.9
		c0.1-0.1,0.2-0.1,0.3-0.1l-0.2-0.2c0,0-0.1,0-0.1,0.1V63.9z"/>
	<path class="st3" d="M832.1,48.9c-0.1,2.3-0.4,5-0.8,7.4c-0.3,3.4-1.8,6.7-2.8,9.8c-0.4,1.9-1.4,3.8-2.2,5.5l-3.3,6
		c-1.1,1.9-1.9,3.8-3.2,5.5c-1.8,2.4-3.5,4.9-6,6.7c-1.5,1.3-3.3,1.4-5.1,1.4c-3.2,0.2-5.7-1.8-8.4-3.3c-1.1-0.4-2-1.5-2.9-2.5
		c-0.8-1-0.2-2.9,1-3.5c0.4-0.1,0.7-0.1,0.8,0.3v0.9c0,1.8,0.8,2.4,2.3,2.3l1.3,0.1c0.9-0.7,1.8-1.1,3-0.9c0.4,0.1,0.9,0,1.5,0v-0.4
		l0.8-0.7c0.1-0.4,0.4-0.6,0.4-0.7c-0.2-1,0.7-1,1-1.7c0.6-0.3,0.8-1,1-1.4l2.9-3.8c0.7-1.2,1.4-2.4,1.9-3.5
		c0.8-1.4,1.7-2.8,2.3-4.3c0.6-1.2,1.4-2.4,2-3.9l2.3-6.7c1-3,1.7-6.3,1.8-9.3c0.3-2.3,0-4.7-0.8-7c-0.2-1-0.8-1.3-1.5-0.4
		c-1.8,1.7-3.3,3.3-4.9,4.7c-1.2,1.5-2.5,2.9-3.8,4.3c-1.5,1.7-2.6,3.8-4,5.6c-1.4,2.3-3.1,4.9-4.6,7.5c-0.4,1-1,2.2-1.4,3.5
		c-0.6,1.4-1.2,3.1-1.9,4.6c-0.7,1.5-1.4,3.1-2.1,4.4l-0.4,1.2c-0.2,2.5-1.7,5.1-2.9,7.5c-0.4,1.1-0.8,2.2-1.1,3.4l-1.7,3.9
		l-2.2,5.5c-0.4,0.8-0.8,1.8-1,2.6c-0.6,1.4-1.3,2.6-1.8,3.8c-0.4,0.8-0.8,1.5-1,2.2c-0.9,2.3-1.8,4.4-2.5,6.7
		c-0.8,2.3-1.7,4.9-2.2,7.3l-2.2,8.5c-0.3,1.4-2.5,2.8-4.2,1.7h0.1c-1.5-0.9-3-2-4.4-3c-0.3-0.2-0.6-1-0.4-1.3
		c0.1-3,1.7-5.6,2.2-8.4c0.4-1.2,0.9-2.3,1.1-3.3l0.2-0.1h-0.2c0.3-0.6,0.4-1.2,0.7-1.8V112c0.1-0.2,0.2-0.8,0.6-1.1
		c0.3-0.4,0.4-0.8,0.7-1.3c0-0.3-0.1-0.7,0-1l4.4-8.7c0.6-1,1-2.2,1.5-3.4l1.2-2.1c0.1-0.4,0.2-1.1,0.6-1.8h-0.2
		c1.5-3.2,2.8-6.6,4.2-10c0.4-0.9,1-2.1,1.3-3.2c0.3-0.8,0.3-1.8,0.6-2.4l1.2-4.5h0.1c-0.1,0-0.1,0-0.1,0l1.7-4.6
		c0.9-2.5,1.8-4.9,2.5-7.6c0.9-2.8,1.7-5.7,2.3-8.8c1-3.2,1.8-6.7,2.6-10.3c0.1-0.2,0.7-0.7,0.8-0.6c0.4,0.2,1.3-0.9,1.4,0.2
		c0.1,0.2,0.3,0.3,0.4,0.3c1.9,0.7,3,2.4,4.3,3.5c0.4,0.1,0.6,0.6,0.6,0.8c0.4,2,0.4,4.1-0.1,6.3l-0.6,2c0.7-0.6,1-1,1.5-1.5
		c1.9-2,3.8-4,5.5-6c2.2-2.6,4.3-5.3,6.6-7.9c0.3-0.6,1.2-0.9,2.4-0.4c0.8,0.2,1.8,0.4,2.6,1c1.8,0.4,2.9,1.8,3.9,3
		C831.2,43.8,832.2,46.3,832.1,48.9z M777,118.9c-0.1,0-0.1-0.2-0.2-0.3l-0.1,0.7v0.2C776.7,119.4,776.8,119.3,777,118.9z
		 M777.8,112.8l-0.4-0.7l-0.3,0.4c-0.1,0.2-0.1,0.6-0.2,1C777.1,113.1,777.4,113,777.8,112.8z M795.8,71.6l-0.2-0.1
		c-0.1,0.4-0.3,1-0.4,1.3c0,0.1-0.2,0.1-0.2,0.1h0.2c-0.4,0.7-1.2,1.3-1.2,1.9c-0.2,1.2-0.7,1.8-1.4,2.2c0-0.4,0.1-0.8,0.1-1.3
		c0-0.2-0.1-0.3-0.1-0.4c-0.2,0-0.6,0.1-0.7,0.2c-0.1,0-0.1,0.2-0.2,0.6c-0.7,1.4-1.5,3.1-2.1,4.9l-1.7,4.7c-0.7,1.7-1.4,3-1.9,4.6
		c-0.6,1-0.9,1.9-1.4,2.9c-0.4,1-1,2.1-1.3,3.1l-0.9,1.8l-2.8,6.8c-0.4,0.8-0.7,1.4-0.1,2.2c-0.3-0.1-0.6-0.4-0.8,0.2
		c-0.1,0.9-0.7,1.5-1,2.1l-0.4,1.3c0,0.1,0,0.2,0.1,0.4c0.2-0.1,0.3-0.2,0.4-0.2c0.1-0.1,0.2-0.1,0.2-0.2c0.2,0.1,0.2,0.2,0.2,0.4
		c0,0.1-0.2,0.3-0.2,0.7c0.2-0.1,0.4-0.3,0.4-0.7c0.1-0.1,0.2-0.3,0.2-0.7c-0.1-0.6-0.2-1.2,0.8-1.4c0.2-0.1,0.2-0.9,0.3-1.3
		c0.1,0.4,0.4,0.8,0.3,1.2c-0.3,1-0.9,1.8-1.3,2.8c-0.1,0.3-0.2,0.7-0.2,1.1c0,0.1,0.2,0.2,0.6,0.3c0.1-0.1,0.4-0.2,0.4-0.3
		c0.3-1.8,0.8-3.5,1.8-5.1c0.4,0.7,0.8,0.3,1-0.3v-0.1c0.8-0.7,1.1-1.4,1.1-2.5c-0.1-1-0.2-2,0.7-2.9l0.3,1c0.8-1.2,0.8-1.2,0.1-2.2
		v-0.2c0.4-0.6,0.7-0.8,0.8-1.2c0.2-0.1,0.6-0.2,0.7-0.3c0.2-0.2,0.2-0.6,0.3-1c0.7-0.7,1.1-1.1,1.5-1.9c0.7-0.8,0.4-1.2-0.1-1.9
		c0-0.1-0.1-0.2-0.1-0.3c0,0,0.1-0.2,0.2-0.2c1,0.4,1.1-0.3,1.3-1c0.1-0.2,0.1-0.4,0.1-0.7c-0.2,0-0.4,0-0.8,0.1l-0.4,0.3H788
		c0.1-0.8,0.2-1.2,1.2-1.8c0.7-0.1,1.7-1,1.5-1.3c-0.3-1,0.3-1.4,0.7-2c0.1-0.4-0.2-0.8-0.3-0.9c-0.1-0.3-0.2-0.4-0.4-0.6
		c0.3,0,0.6-0.1,0.9,0s0.6,0.2,0.6-0.2c0-1.5,0.6-2.8,1-3.9c0.6-0.9-0.4-1.3-0.3-1.9c-0.1,0-0.2,0-0.2,0.1c-0.4,0.3-0.7,0.8-0.8,1.2
		c-0.1,1-0.7,1.3-1.3,1.4c0,0,0-0.1,0.2-0.1c0.4-1.8,0.9-3.5,1.4-5.3c0-0.1,0.2-0.1,0.4-0.2c0,0.3,0.1,0.6,0.1,1.1
		c0.1,0.2,0.1,0.4,0.2,0.8l0.4-0.7c0.7-1.8,1.5-3.4,2.2-5.1L795.8,71.6z M778.9,114c-0.1-0.1-0.2-0.1-0.2-0.1c-0.1,0-0.2,0-0.2,0.1
		c0.1,0,0.1,0.1,0.2,0.1C778.7,114.1,778.8,114,778.9,114z M780.4,106.7c-0.1,0.3-0.2,0.7-0.6,1l-0.3-0.7h0.1
		C779.8,106.9,780.2,106.9,780.4,106.7z M782,103.7c0,0.7-0.2,1.1-0.3,1.5c0,0.2-0.3,0.3-0.6,0.6c-0.1-0.2-0.1-0.4-0.1-0.7v-0.3
		C781.4,104.5,781.7,104.3,782,103.7z M781.6,109c0-0.1-0.1-0.1-0.1-0.2c0,0.1-0.1,0.1-0.1,0.1c0,0.1,0.1,0.1,0.1,0.2L781.6,109z
		 M782,102.7h0.1c-0.1,0.2-0.1,0.4-0.3,0.6L782,102.7z M782.9,100.6l1.1-1.1c-0.4,0.9-0.9,1.4-1.4,2.2c0,0.1,0.3,0.3,0.3,0.6
		s-0.2,0.4-0.2,0.6C782,101.7,782,101.5,782.9,100.6z M784.3,102.7l-0.2-0.1v0.1H784.3z M785.3,95.9c0,0.2,0,0.6,0.1,1
		c-0.2,0.2-0.4,0.7-0.9,1c0,0.1-0.1,0.1-0.1,0c-0.1,0-0.1-0.1-0.1-0.2c0.2-0.6,0.4-1,0.8-1.7c0-0.1,0.1-0.1,0.1-0.2
		C785.2,95.9,785.2,95.9,785.3,95.9z M785.6,94.2l0.4-0.3c0,0.1,0,0.2-0.1,0.3v0.1C785.9,94.3,785.8,94.3,785.6,94.2z M786.7,93.2
		c0,0.1,0,0.3,0.2,0.6h-0.8v-0.2c0,0,0.1,0,0.1-0.1C786.3,93.5,786.4,93.3,786.7,93.2z M787.1,90.5c0-0.3,0.2-0.7,0.3-0.9v1.8
		C787.3,91.1,787.1,90.7,787.1,90.5z M789,86.1l0.2,0.4c-0.2,0.1-0.3,0.2-0.4,0.3C788.9,86.6,789,86.4,789,86.1z M789.9,85.6
		c-0.1,0.1-0.2,0.3-0.6,0.7v-0.4h-0.1c0-0.2,0.1-0.3,0.1-0.8L789.9,85.6z M789.2,86.5c0-0.1,0.1-0.1,0.1-0.2h0.2
		C789.3,86.4,789.2,86.4,789.2,86.5z M790.6,95.2c-0.2,0-0.2-0.1-0.4-0.1c0,0-0.1,0.1-0.1,0.2l0.1,0.1
		C790.4,95.4,790.4,95.3,790.6,95.2z M792.6,74.3l0.8-0.7c0-0.1,0.1-0.1,0.1-0.1l0.3-1.2v-0.3c-0.3,0.6-0.8,0.7-1,1
		C792.6,73.3,792.6,73.7,792.6,74.3z M793.4,88.7c0-0.1-0.3-0.2-0.4-0.4c-0.1,0.1-0.1,0.2-0.1,0.3c0,0.2,0.1,0.6,0.2,0.9
		C793.3,89.1,793.4,88.8,793.4,88.7z M793.5,70.9c0,0.1,0.1,0.3,0.2,0.7l0.7-0.8l-0.4-0.2L793.5,70.9z M794.4,68.9
		c0,0.2,0.1,0.6,0.2,0.8c0.2-0.1,0.7-0.1,0.7-0.4c0.2-0.3,0.3-1,0.4-1.4h-0.1V67c0-0.1-0.1-0.2-0.2-0.3l-0.2,0.2L794.4,68.9z
		 M812.3,85.5c0-0.1-0.2-0.4-0.4-0.6c-0.1,0.4-0.2,0.6-0.2,0.7l0.2,0.1C812,85.7,812.1,85.6,812.3,85.5z M813.2,84
		c-0.1,0-0.3,0-0.6-0.1c0,0.1,0.2,0.2,0.4,0.3C813.2,84.1,813.2,84,813.2,84z M822.3,66.8c-0.3,0.1-0.6,0.3-0.7,0.6l-2.4,5
		c-0.4,0.9-1.2,1.9-1.4,2.9c-0.4,1.9-1.9,3.2-2.5,5c-0.1,0.3-0.4,0.8-0.7,1.1c-0.1,0-0.2,0-0.3,0.1c-0.1,0-0.1,0-0.2,0.3v0.1
		c0.1,0,0.2-0.1,0.3-0.1c0-0.3,0.1-0.3,0.2-0.4c-0.1,0.1-0.1,0.4-0.1,0.6s0,0.2-0.1,0.4c0.2-0.1,0.4-0.2,0.7-0.2
		c1.3-1.1,2-2.9,2.9-4.4c1-1.4,1.7-3.2,2.3-5l2.3-4.9C822.6,67.5,822.3,67,822.3,66.8z M814.8,80.4l0.4-0.3
		c-0.2,0.1-0.4,0.1-0.7,0.2C814.6,80.3,814.8,80.3,814.8,80.4z M816.1,75.7l0.1,0.4c0-0.1,0.1-0.1,0.1-0.4c0-0.1,0-0.1-0.1-0.2
		C816.2,75.6,816.1,75.6,816.1,75.7z"/>
	<path class="st3" d="M871.4,67c-0.2,1.9-0.1,3.8-0.4,5.4c-0.3,1.7-1.1,2.8-2.3,3.9c-0.1,0-0.3,0.2-0.3,0.6
		c-0.3,0.6-0.7,1.2-1.1,1.8c-0.9,1.2-2.1,2.3-3.3,3.2l-1.9,1.5c-0.3,0.1-0.3,0.3-0.3,0.4c0.2,0,0.6,0.1,0.7,0.1
		c0.3,0,0.7-0.1,0.9-0.1c-0.2,0.2-0.3,0.7-0.7,0.8l-1.3,0.9l-0.4,0.9l-1.1,1l-0.3,0.3c0.1,0.1,0.4,0.1,0.6,0.1
		c0.4-0.2,0.9-0.3,1.2-0.6h0.3v0.2l-0.3,0.3c-1.2,1.1-2.6,2.3-4.2,3.1c-1.7,1.2-3.5,1.9-5.6,2.6c-0.6,0.3-1.3,0.1-2.1,0h-0.8
		c-1.8,0.2-3.5-0.3-5.2-0.8c-2.2-0.4-3.4-2-5-3.2c-1-0.7-2-1.7-2.9-2.4c-1.4-1.2-2-2.6-2.4-4.1c-1.1-2.4-1.2-4.9-0.8-7.2
		c0.3-2.3,1-4.5,1.3-6.8v-0.1l2-5.1l1.7-3.5c0.2-0.3,0.6-0.4,0.6-0.8c0.2-0.3,0.3-0.7,0.4-1c0.1-0.1,0.1-0.3,0.2-0.4l1.3-1.8
		c0.2-0.1,0.2-0.6,0.4-0.7l0.4-0.8c0.6-0.4,1-1,1.4-1.7l-0.4-0.1c0.2-0.2,0.4-0.7,0.7-0.7c0.7,0.1,1-0.6,1.3-0.9l1.3-1.8
		c0.2-0.2,0.9-0.4,0.4-1c0-0.1,0.3-0.3,0.4-0.4c2.8-2.6,5.6-5.4,9.3-7.2c1.4-0.9,3.3-1.2,5.2-1.7c2.1-0.8,4,0.1,5.7,1.2l1.1,0.3
		c0.9,0.3,1.5,0.7,1.8,1.5c0.2,0.2,0.4,0.2,0.8,0.4c0.8,0.6,1.2,1.2,1.8,2.4c1,2.9-0.7,5-1.2,7.4l-0.4,1.4c-0.8,1.4-1.3,3.1-2,4.5
		c-0.9,1.8-1.8,3.6-3,5c-1.2,1.3-2.8,2.3-4.2,3c-1.3,0.8-2.8,1-4.3,1.3c-1.4,0.2-3,0.3-4.5,0.3c-0.9,0-1.8-0.2-2.5-0.3
		c-1.9-0.4-3.8-0.7-5.6-1.2c-0.8-0.1-1.1,0.1-1.4,0.7c-0.4,1.5-1.1,3-1.7,4.4l-1,3.5c-0.1,0.4-0.4,0.8-0.7,1.3
		c0,0.1-0.1,0.2-0.1,0.3l-0.2,2.9c-0.3,2.8-0.3,5.7,1.9,8.3c0.8,1,2,1.7,3.4,1.5c3.5-0.2,6.2-1.4,8.9-3.1c0.8-0.4,1.5-0.9,2.3-1.2
		c0.4-0.3,1.1-0.3,1.8-0.6c1.4-0.7,3-1.4,4.4-2.2c1.3-0.9,2.4-1.8,3.8-2.6c0.2-0.2,0.3-0.8,0.6-1.1c-0.4,0.1-0.8,0.3-1,0.7l-3.9,2.3
		c-1,0.8-2.2,1.4-3.4,2.3c-0.2,0-0.3,0-0.4,0.1l0.2-0.6c1.2-0.7,2.4-1.3,3.5-2.2c0.6-0.7,1.5-1.2,2-2.2c0.4-1.1,1.5-1.8,2.2-2.4
		c2.2-2.3,3.5-5.1,5-7.9l0.8-2.3c0.1-0.1,0.2-0.2,0.3-0.4C870.9,66.5,871.4,66.8,871.4,67z M836.3,73.5l0.1,0.1
		C836.4,73.6,836.4,73.5,836.3,73.5c-0.1-0.8-0.1-1.3,0.4-1.8v-0.2c-0.2-1.4,1.7-1.7,1.2-3c-0.1-0.1,0.1-0.1,0.1-0.1l0.4-0.8
		c-0.2,0-0.3-0.1-0.6-0.1h-0.2c0.3-0.2,1.1-0.4,0.4-1.1h0.2c0.4,0.2,0.9-0.1,0.9-0.4s-0.1-0.6-0.6-0.9c0-0.4,0-0.7-0.2-1l-0.4,0.6
		c-0.6,1.4-1.3,2.9-1.9,4.5c-0.8,2.5-1.3,5.2-2.1,7.8c-0.1,1.1-0.1,2.4-0.2,3.6v0.4c0.1,0,0.4,0,0.6-0.1l0.1-0.6
		c0.2-1.2,0.2-2.4,0.6-3.4C835.2,75.7,835.9,74.6,836.3,73.5z M838.3,72.9c0,0-0.2,0.1-0.2,0.2c-0.2,1.1-0.9,2.3-1,3.5
		c-0.2,0.3-0.1,1-0.4,1.2c-0.9,0.8-0.6,1.9-0.7,2.8c-0.4,0.6-0.2,1.2-0.4,2c0,0.1-0.1,0.2-0.1,0.4h0.3c0.3-0.1,0.7-0.1,0.7-0.3
		c0.2-0.8,0.2-1.5,0.3-2.3c0.2-1.1,0.3-2.3,0.6-3.4C837.5,75.6,838.1,74.3,838.3,72.9z M836.5,84.8c-0.2-0.1-0.6-0.2-0.7-0.1
		c0,0,0,0.1-0.1,0.2c0,0.1,0.1,0.2,0.1,0.2C836,85.2,836.2,85.1,836.5,84.8z M838.5,72.2l-0.1-0.1c-0.1,0.2,0,0.6-0.1,0.8
		L838.5,72.2z M839.8,63.8c0.6,0,0.8-0.3,0.7-1c0.7-0.1,0.4-0.3,0-0.8l0.7-1.1c0.8,0.1,0.9-0.4,1.1-0.9l0.1-0.1
		c0.6-0.1,0.8-0.8,0.6-1.3h-0.6c0.3-0.2,0.7-0.6,1-0.7h0.2c-0.1,0,0,0.1-0.1,0.2h0.1v-0.2c0,0,0.4-0.1,0.4-0.2
		c-0.3-0.4,0.2-0.6,0.4-0.9v0.1l0.2-0.2l0.4-0.7l0.2-0.4c0.1,0,0-0.1,0-0.1v0.1l-0.6-0.3h-0.2l0.1-0.1c0.2-0.1,0.4-0.3,0.7-0.3
		c0.9,0.1,1.2-0.7,1.9-1.2c0.1-0.3-0.4-1.1,0.4-0.8c0-0.2,0.1-0.3,0.1-0.4c-0.1-0.1-0.1-0.3,0-0.6l0.6-0.7l0.1-0.1h-0.2
		c-0.7,0.4-1.4,0.9-2,1.5c-0.7,0.6-1.1,1.4-1.7,2.1c-2.1,2.5-4.1,5.1-5.4,7.9C838.8,63.3,839.1,63.8,839.8,63.8z M840.1,62.8h0.4
		c0,0.1,0,0.2-0.1,0.2l-0.2,0.3L840.1,62.8z M841,60.6v0.3c-0.1-0.1-0.1-0.1-0.2-0.1C840.9,60.8,840.9,60.7,841,60.6z M841.2,60.9
		H841H841.2z M843.5,51.3h-0.2c0-0.1,0-0.2,0.1-0.2l1.2-1.5c0,0,0.1,0,0.1-0.1v0.2C844.4,50.1,843.8,50.8,843.5,51.3z M851.3,54.4
		l-4,4.7c-1.3,1.5-2.4,3.2-3.4,4.9c-0.1,0.6,0,0.6,0.3,0.6h1.8c0.1,0.1,0.2,0.1,0.4,0.2c-0.1,0-0.2,0-0.2,0.1c0,0,0.1-0.1,0.2-0.1
		c0.3-0.1,0.9-0.1,1.2-0.1c0.4-0.1,0.7-0.4,1-0.4c1.5-0.1,3.2-0.6,4.7-1.1c3.1-1.3,5.8-3.2,7.7-6c1.2-2.2,2.4-4.4,3.2-7
		c0.4-1.5,0.7-3.2,1.1-4.6c0.1-0.2,0-0.4-0.1-0.6l-0.4,0.1c-0.6,0.2-1.2,0.6-1.8,0.7c-1.9,0.7-3.6,1.4-5.1,2.6
		C855.6,50.2,853.4,52.2,851.3,54.4z M844.7,56.7c-0.1,0-0.2,0.1-0.2,0.1l-0.1-0.1H844.7z M845.8,54.3l-0.1-0.1l0.2-0.2v0.2
		C845.8,54.2,845.8,54.3,845.8,54.3z M862.4,86.6l-0.6,0.3v-0.2c0-0.1,0.1-0.2,0.2-0.2C862.1,86.5,862.4,86.5,862.4,86.6z
		 M867.3,79.8c0.1-0.1,0.3-0.1,0.6-0.3l-0.1,0.7c-0.9,0.9-1.5,1.7-2.2,2.5c-0.3,0.3-1,0.3-1.5,0.4h-0.1c0.1,0,0.1-0.1,0.1-0.2
		C865.1,81.8,866.1,80.8,867.3,79.8z M866.3,78.2c-0.1,0-0.2,0.1-0.2,0.1c0,0.2,0.1,0.2,0.1,0.3l0.1-0.3V78.2z M869.7,76.5
		c0.2,0.2,0.2,0.3,0.2,0.3c-0.3,0.9-0.8,1.5-1.7,2.1c0-0.2,0-0.7,0.1-0.8l1.1-1.3C869.6,76.7,869.8,76.7,869.7,76.5z"/>
	<path class="st3" d="M916.6,40.4c-0.9,1.2-1.5,2.6-2.3,4.1c-1.3,2.8-2.8,5.6-4.2,8.5c-1.1,2.3-2.1,4.7-3.1,7.2
		c-0.7,1.7-1.1,3.5-1.7,5.2c-0.3,1.2-0.4,2.3-0.8,3.4c-0.1,0.3-0.4,0.8-0.7,1.1c-0.9,1.1-1.5,0.8-2.3-0.1c-0.2-0.2-0.6-0.3-0.8-0.6
		c-2-0.3-2.8-1.9-3.1-3.9c-0.4-2.2,0-4.2,0.7-6.3c0.6-1.7,1.2-3.4,1.8-5c0.1-0.1,0.1-0.3,0.1-0.6c-0.1,0-0.2,0.2-0.3,0.2
		s-0.2,0.1-0.3,0.1c-0.1-0.1-0.1-0.4-0.1-0.6s0.1-0.2,0.2-0.3c0.3-0.1,0.8-0.2,1-0.4s0.2-0.6,0.3-0.8c0-0.1,0-0.3,0.1-0.3
		c0.8-0.4,0.6-1.2,0.9-2h-0.6c-0.2-0.4-0.1-0.9,0.3-1.2l1.9-1.8l3.3-7.1c0.1-0.1,0.1-0.2,0.1-0.4c-0.1,0-0.3,0-0.4,0.2
		c-0.9,0.8-1.8,1.7-2.5,2.5l-12.7,13.8c-1.1,1.3-2.3,2.5-3.4,4c-0.7,0.8-1.1,1.9-1.7,2.8l-1.2,2.5l-0.1,0.1h0.1c0,0.3-0.1,0.7,0,1.1
		c0,0.1,0.2,0.2,0.3,0.4l1-1.1c0.9-1.2,1.7-2.4,2.6-3.6l2.1-2.2l2.2-2.4l1.2-1.1c0,0,0.1,0.2,0.2,0.2c0.3-0.4,1.2-0.9,1.1-1.1
		c-0.1-0.9,0.7-0.9,0.9-1.3c0-0.2,0.2-0.2,0.3-0.2v0.6c-0.6,0.6-1,1.2-1.4,1.8c0.4,0,0.7-0.2,1-0.6c0.7-0.9,1.5-1.3,2.3-2
		c0,0.1,0.1,0.4,0.1,0.7s0.3,0.7-0.3,0.3c0-0.1-0.2,0-0.3,0.1c-0.2,0.2-2.6,3.1-2.8,3.1c-0.3,0.1-0.6,0.1-0.8,0.2
		c0-0.1-0.1-0.2-0.1-0.3l0.3-0.9l-0.7,0.6c-0.3,0.1-0.6,0.4-0.8,0.7h-0.2l-0.3,1.4l0.9-0.8c0.1-0.1,0.2-0.1,0.2-0.2
		c0,0.1,0.1,0.4,0,0.6c-0.1,0.6-0.3,1.1-0.4,1.7c0,0.1-0.1,0.2-0.2,0.2c-0.8,0-0.9,0.8-1.2,1.1c0.6,0.7-0.2,0.9-0.3,1.2
		c0,0.2-0.2,0.3-0.4,0.6c0,0.1-0.1,0.1-0.2,0.1c-0.4-0.1-0.4-0.1-0.8,0.4c-0.1,0.1-0.2,0.3-0.2,0.7c0,0.6-0.3,1.1-0.9,1.2
		c-0.3,0.2-0.6,0.4-0.4,0.9c0.1,1.1-0.7,1.8-1.1,2.4c-0.7,1.1-1.4,2.2-2.2,3.3c-0.1,0.2-0.1,0.7-0.2,0.9c-0.2,0.3-0.4,0.6-0.6,1
		l-0.3,0.2v0.1c0,0-0.1,0-0.1,0.1v-0.1h-0.1l-0.1,0.2c0,0.1-0.1,0.1-0.1,0.2l-0.3,0.6c0,0,0.1,0,0.2,0.1c-0.1,0-0.2,0.1-0.2,0.2
		c-0.9,0.2-0.8,1.1-1.2,1.7c-1,1.9-2,3.5-2.9,5.4c-0.7,1.4-1.3,2.9-1.9,4.5c-0.9,2-1.7,4.2-2.4,6.3c0,0.2-0.3,0.3-0.4,0.3
		c-0.4-0.1-0.9-0.2-1.3-0.4c-0.1,0-0.2-0.4-0.2-0.4c-1,0.7-1.4-0.7-2.2-0.7c-0.1,0-0.2-0.1-0.3-0.2c-0.7-0.8-1.3-1.5-2-2.1
		c-0.7-0.8-0.9-2.1-0.6-3c1.8-4.5,3.6-9,5.3-13.8c2-5.7,3.5-11.6,4.9-17.4c0.8-3.6,1.4-7.5,2.2-11.1c0.1-0.2,0.1-0.4,0.1-0.7
		c-0.3-1.2,0.3-2.1,0.8-3c0.4-0.7,2.3-1,2.9-0.4c0.4,0.3,0.9,0.8,1.4,0.3l0.6,0.1l1.2,0.4c0,0,0.1,0,0.2,0.1
		c1.5,0.9,1.8,2.2,1.5,4.1c-0.3,3-1.9,5.5-2.3,8.4c-0.1,1.8-0.8,3.4-1.1,5.1c-0.1,0.1,0,0.4,0,0.6c0.1,0,0.2-0.1,0.3-0.2
		c1.3-1.5,2.8-3,4.1-4.5l1.4-1.8c1.7-1.7,3.2-3.4,4.9-5.2c1.4-1.5,2.8-3.3,4.3-4.9l7.9-8.3c0.9-0.8,1.8-1.3,2.8-1.4
		c0.1-0.1,0.2-0.2,0.3-0.1l1.1,0.4l-0.8,0.4h-0.3l-1,0.6c0.3,0.1,0.8,0.6,1.1,0.6c1-0.1,1.9-0.3,2.8-0.6c0.3,0,0.7-0.2,0.9,0.6
		c0,0.3,0.7,0.4,0.8,0.8C917.6,38.3,917.5,38.8,916.6,40.4z M878.3,76.8c0-0.1-0.1-0.1-0.1-0.1c-0.1,0.1-0.1,0.1-0.1,0.2v0.2
		C878.2,77,878.3,76.9,878.3,76.8z M884.5,74.9l0.1-0.1v0.1H884.5z M885.1,66.8H885c-0.1,0.1-0.1,0.2-0.1,0.3L885.1,66.8z M890,62.7
		c0.1,0,0.1,0.1,0.2,0.1c0,0,0-0.1,0.1-0.1c-0.1,0-0.1-0.1-0.1-0.1C890.1,62.6,890.1,62.7,890,62.7z M891.9,60.7
		c0-0.1,0.1-0.1,0.2-0.1l0.8-1.1l-1,1V60.7z M891.9,62.6c0.4-0.2,0.3-0.6,0.2-0.8c-0.1,0.1-0.2,0.4-0.2,0.7V62.6z M900.8,49.5
		c0.2-0.1,0.4-0.1,0.7-0.1v0.2l-2.4,2.5c-0.1,0.1-0.2,0.1-0.4,0.1V52C899.4,51.1,900.1,50.3,900.8,49.5z M900.7,52.1
		c-0.1,0-0.2,0.1-0.3,0.1c-0.1-0.1-0.2-0.2-0.3-0.2c0.1-0.1,0.2-0.2,0.3-0.2S900.6,51.9,900.7,52.1z M900.6,60.1l-0.1-0.1l-0.1,0.1
		v0.2C900.5,60.4,900.5,60.2,900.6,60.1z M901.2,58.6c-0.1-0.2-0.2-0.2-0.2-0.2c-0.1,0.2-0.2,0.3-0.2,0.6l0.1,0.1
		C901,58.9,901.1,58.8,901.2,58.6z M902.4,55.5c0-0.1,0-0.2-0.1-0.3c-0.1,0.2-0.2,0.3-0.2,0.4c0,0.1,0.1,0.1,0.2,0.2
		C902.3,55.7,902.4,55.6,902.4,55.5z M902.8,48.6c0-0.1,0-0.1-0.1-0.1c-0.1,0.3-0.3,0.6-0.4,0.8L902.8,48.6z"/>
	<path class="st3" d="M939.3,44.8c-0.9,1.5-1.7,3.2-2.4,4.7c-0.6,1-1,2-1.7,2.8c-0.6,0.8-1.3,1.2-2.1,1.8c0,0-0.8-0.7-0.8-1
		c0-1.1,0.1-2.3,0.4-3.4c0.6-1.9,1.2-3.8,1.9-5.6c0.1-0.3,0.1-0.7,0.2-1c-3,2.5-6,5-8.7,7.5c-1,1.1-1.8,2.4-2.4,3.8s0.2,2.3,1,3.2
		c1.4,1.3,2.9,2.6,4.4,3.9c2.2,1.8,3.5,4.2,5,6.6c1,1.8,1.5,3.8,1.5,5.7c0,1.1-0.3,2.2-0.7,3.3c-0.3,1-0.7,2-1.1,2.9
		c-0.4,0.8-1,1.5-1.5,2.3c-1,1.3-2,2.5-3.1,3.8c-0.3,0.4-0.9,0.7-1.4,1c-0.3,1.4-1.5,1.9-2.6,2.6c-1,1.9-2.4,3.3-4.5,4.1
		c-2.3,0.8-4.6,1.4-7,2c-1.8,0.3-3.5,0.2-5.1-0.7h-0.1l-1.8-0.8l-0.4-0.2c-0.1-0.1-0.1-0.2-0.2-0.2c-0.6-0.4-1.1-1-1.8-1.4
		c-1.9-1.4-3.8-2.9-3.5-5.6c0-0.6,0.1-1.1,0.4-1.5c0.8-1.4,1.8-2.9,2.6-4.3c2.1-2.2,4.2-4.5,6.2-6.7c0.2-0.2,0.6-0.3,0.9-0.4
		c-0.2,0.2-0.2,0.6-0.4,0.9l-1.2,1.5c-0.2,0.1-0.3,0.2-0.4,0.4h-0.2v0.2c-1,1.2-2,2.4-2.9,3.6c-0.3,0.4-0.4,1.1-0.6,1.7
		c-0.1,0.1,0.1,0.2,0.2,0.3c0,0,0.1-0.1,0.2-0.1l0.9-0.6c0.6-0.9,1.1-1.8,1.8-2.5c0-0.2,0.1-0.4,0.2-0.7c0.1,0.4,0.3,1,0.2,1.3
		c-0.4,2.2-1.2,4.4-1.4,6.6c-0.1,1.2,0.4,2.5,0.8,3.9c0,0.1,0.2,0.1,0.2,0l0.3-0.7c0.2,0,0.3,0,0.4-0.1v0.1c1.9-0.4,3.9-0.7,5.5-1.3
		c3.1-1.4,6.1-3.1,9.2-4.6c0.1,0,0.2,0,0.2-0.1c1.2-1,2.5-2,3.8-3.1c2.9-2.9,4.1-5.2,3.6-9.4c-0.2-2.2-1.4-4-3-5.5
		c-2.2-2-4.7-3.8-7-5.7c-2-1.9-3.9-3.8-4.3-6.6c-0.2-2,1.5-5.1,2.6-6.6c3.1-4.3,7.1-7.6,11.9-9.8c3.1-1.5,5.8-0.1,7.8,2.6
		C941,41.5,940.2,43,939.3,44.8z M906.4,94c0.1,0,0.1,0.1,0.2,0.2L906.4,94z M908.9,78c0,0.1,0.1,0.1,0.1,0.1
		c-0.1,0.1-0.2,0.2-0.4,0.3C908.7,78.3,908.8,78.2,908.9,78z M910.8,91.5c0-0.1-0.1-0.2-0.2-0.6v0.7c0.1,0.1,0.2,0.1,0.2,0.2
		C910.8,91.7,910.9,91.6,910.8,91.5z M911.3,90.8c0.1,0,0.2,0,0.4-0.1c-0.1-0.1-0.2-0.2-0.3-0.2c0,0-0.1,0.1-0.2,0.1
		C911.2,90.7,911.3,90.8,911.3,90.8z M921,88.9c-0.3,0-0.7,0.1-1,0.1c0.1-0.4,0.2-1,0.4-1.4c-0.1-0.1-0.1-0.1-0.1-0.2
		c-0.6-0.1-1.1-0.4-0.9,0.6c-0.1,0.4-0.3,0.9-0.4,1.3c-0.1,0-0.1,0.1-0.2,0.1c-0.2,0.9-1.1,1.2-2,0.8l-0.1,0.1v-0.1h-0.3l0.4-0.4V90
		l0.4-0.9c0.1-0.1,0.1-0.2,0.2-0.2c0,0,0.1,0.1,0.1,0.2c-0.3,1.7,0.7,0,0.9,0.3v-0.1c0,0,0.1-0.1,0.1-0.2h0.1
		c-0.1-0.3-0.1-0.6-0.1-0.8c0-0.1,0.2-0.3,0.2-0.4c-0.1,0-0.3-0.1-0.6-0.1c-0.7,0.3-1.3,0.8-2.1,1.1c-0.7,0.1-1.3,0.2-1.9,0.2
		c-0.1,0-0.1-0.1-0.1-0.2l-0.7,0.4c0.2,0.2,0.4,0.4,0.8,0.7c0.1,0.2,0.6,0.2,0.6,0.4s-0.1,0.6-0.2,0.9l-0.6-0.3
		c-0.1-0.1-0.1-0.2-0.2-0.4c-0.1,0.2-0.3,0.4-0.6,0.7v-1.1c-0.2,0.2-0.4,0.3-0.8,0.6c-0.2,0.2-0.6,0.3-0.8,0.6
		c-0.1,0.1-0.2,0.3-0.2,0.4c-0.1,0.1,0.1,0.3,0.2,0.3c0.8,0,1.5,0.2,2.2,0c1.5-0.2,3.1-0.7,4.5-1.2c0.7-0.2,1.3-0.8,2-1.1
		C920.7,89.4,920.8,89.1,921,88.9z M916.3,90l0.1,0.1c0,0.3,0.1,0.6,0.1,0.8c-0.2,0-0.4-0.1-0.6-0.1h0.4c-0.2-0.2-0.4-0.3-0.6-0.4
		c-0.2-0.2-0.4-0.3-0.8-0.4c0.2-0.1,0.3-0.3,0.4-0.3C915.8,89.7,916.1,89.8,916.3,90z M915.2,90.9c0.2,0,0.3-0.1,0.6-0.1
		c-0.1,0.1-0.3,0.2-0.6,0.3V90.9z M919.9,89.4c0-0.1,0.1-0.2,0.1-0.3c0,0.1,0,0.2,0.1,0.3H919.9z M921.4,86.9l-0.3-0.4
		c0,0.1,0.1,0.3,0.2,0.6C921.3,86.9,921.3,86.9,921.4,86.9z M922.7,87.3l-0.3-0.3c0,0.1-0.1,0.2-0.1,0.3s0.1,0.2,0.2,0.3
		C922.5,87.5,922.6,87.4,922.7,87.3z M925.9,84l-0.1-0.4c-0.1,0.1-0.4,0.2-0.6,0.4c-0.2,0.4-0.3,0.9-0.4,1.3c0-0.3,0-0.6,0.1-0.9
		l-0.9,0.3l-0.9,0.6c0,0.1-0.1,0.2-0.1,0.3h0.3l1.4-0.3c0.2-0.2,1.2,0.3,0.7-0.8C925.3,84.5,925.7,84.2,925.9,84z M924.6,87.2
		c0-0.1,0-0.1,0.1-0.2c-0.1,0-0.1,0-0.2,0.1C924.4,87.1,924.6,87.1,924.6,87.2z M929.1,80.3c-0.1,0-0.1,0-0.2-0.1l-0.1,0.4l-1.7,1.3
		c-0.2,0.3-0.3,0.7-0.4,1.1c0.4-0.3,0.8-0.8,1.2-1.1c0.2-0.1,0.4-0.2,0.6-0.3c0.1,0.1,0.1,0.3,0.2,0.4c0-0.4,0-1,0.1-1.4L929.1,80.3
		z M928.5,84c0-0.2-0.1-0.3-0.1-0.6l-0.1,0.4C928.4,84,928.4,84,928.5,84z"/>
</g>
</svg>
