<?xml version="1.0" encoding="UTF-8" standalone="no"?>
<!-- Generator: Adobe Illustrator 19.1.0, SVG Export Plug-In . SVG Version: 6.00 Build 0)  -->

<svg
   xmlns:dc="http://purl.org/dc/elements/1.1/"
   xmlns:cc="http://creativecommons.org/ns#"
   xmlns:rdf="http://www.w3.org/1999/02/22-rdf-syntax-ns#"
   xmlns:svg="http://www.w3.org/2000/svg"
   xmlns="http://www.w3.org/2000/svg"
   xmlns:sodipodi="http://sodipodi.sourceforge.net/DTD/sodipodi-0.dtd"
   xmlns:inkscape="http://www.inkscape.org/namespaces/inkscape"
   version="1.1"
   id="Logo"
   x="0px"
   y="0px"
   viewBox="52 166.5 560.90003 126.5"
   xml:space="preserve"
   inkscape:version="0.91 r13725"
   sodipodi:docname="kuzzle.svg"
   width="560.90002"
   height="126.5"><metadata
     id="metadata67"><rdf:RDF><cc:Work
         rdf:about=""><dc:format>image/svg+xml</dc:format><dc:type
           rdf:resource="http://purl.org/dc/dcmitype/StillImage" /><dc:title></dc:title></cc:Work></rdf:RDF></metadata><defs
     id="defs65" /><sodipodi:namedview
     pagecolor="#ffffff"
     bordercolor="#666666"
     borderopacity="1"
     objecttolerance="10"
     gridtolerance="10"
     guidetolerance="10"
     inkscape:pageopacity="0"
     inkscape:pageshadow="2"
     inkscape:window-width="1920"
     inkscape:window-height="1031"
     id="namedview63"
     showgrid="false"
     fit-margin-top="10"
     fit-margin-left="10"
     fit-margin-right="10"
     fit-margin-bottom="10"
     inkscape:zoom="0.60915069"
     inkscape:cx="459.65638"
     inkscape:cy="63.2"
     inkscape:window-x="0"
     inkscape:window-y="27"
     inkscape:window-maximized="1"
     inkscape:current-layer="g6" /><style
     type="text/css"
     id="style3">
	.st0{fill:#45B29D;}
	.st1{fill:#00757F;}
	.st2{fill:none;}
	.st3{fill:#004B52;}
	.st4{display:none;}
</style><g
     id="Calque_1_1_"
     transform="translate(0,3.3)"><g
       id="g6"><g
         id="g18"><g
           id="g20"><g
             id="g22"><g
               id="g24"><g
                 id="g26"><g
                   id="g28"><g
                     id="g30"><path
                       class="st1"
                       d="m 190.6,210.7 c 8.3,-2.6 14,-8 14,-14.4 0,-8.8 -11.1,-16 -24.9,-16 -9.3,0 -17.4,3.3 -21.6,8.1 l -20.3,-13.8 -20.3,13.9 c -4.2,-4.8 -12.3,-8.1 -21.6,-8.1 -13.7,0 -24.9,7.1 -24.9,16 0,6.3 5.7,11.7 14,14.4 l -23,15.7 20.4,14 c 4.2,-4.8 12.3,-8 21.5,-8 13.7,0 24.9,7.1 24.9,16 0,6.3 -5.6,11.7 -13.9,14.3 l 9.9,6.7 13.1,9 13.3,-9.2 9.6,-6.6 c -8.2,-2.6 -13.9,-8 -13.9,-14.3 0,-8.8 11.1,-16 24.9,-16 9.2,0 17.3,3.3 21.5,8 l 20.4,-14 -23.1,-15.7 z m -52.9,52.8 c -1.4,0 -3.9,-1.5 -3.9,-3.5 0,-2 2.8,-4.9 4.1,-4.9 1.3,0 3.8,2.9 3.8,4.7 0,1.8 -2.6,3.7 -4,3.7 z"
                       id="path32"
                       inkscape:connector-curvature="0"
                       style="fill:#00757f" /><g
                       id="g34"><g
                         id="g36"><path
                           class="st1"
                           d="m 120.8,244.9 c 0,3.4 -2.7,6 -6,6 -3.4,0 -6,-2.7 -6,-6 0,-3.4 2.7,-6 6,-6 3.2,0 6,2.7 6,6 z"
                           id="path38"
                           inkscape:connector-curvature="0"
                           style="fill:#00757f" /></g><g
                         id="g40"><path
                           class="st1"
                           d="m 166.9,244.9 c 0,3.4 -2.7,6 -6,6 -3.4,0 -6,-2.7 -6,-6 0,-3.4 2.7,-6 6,-6 3.3,0 6,2.7 6,6 z"
                           id="path42"
                           inkscape:connector-curvature="0"
                           style="fill:#00757f" /></g></g></g></g></g></g><g
               id="g44"><path
                 class="st1"
                 d="m 267.4,232.5 c 2,-2.2 4,-4.3 6.1,-6.7 2.1,-2.4 4.1,-4.6 6.1,-6.9 2,-2.3 3.8,-4.4 5.6,-6.5 1.8,-2.1 3.3,-3.8 4.5,-5.3 l 23.9,0 c -4.7,5.4 -9.4,10.7 -13.9,15.7 -4.5,4.9 -9.5,10.2 -14.9,15.4 2.7,2.5 5.5,5.3 8.4,8.7 2.9,3.4 5.6,6.9 8.4,10.5 2.7,3.6 5.1,7.2 7.4,10.8 2.3,3.6 4.1,6.9 5.6,9.9 l -23.1,0 c -1.5,-2.4 -3.1,-4.9 -4.9,-7.8 -1.9,-2.9 -3.7,-5.7 -5.8,-8.5 -2.1,-2.9 -4.2,-5.5 -6.5,-8.2 -2.3,-2.6 -4.5,-4.8 -6.8,-6.6 l 0,31.1 -20.1,0 0,-101.6 20.1,-3.3 -0.1,59.3 0,0 z"
                 id="path46"
                 inkscape:connector-curvature="0"
                 style="fill:#00757f" /><path
                 class="st1"
                 d="m 379.5,275.5 c -3.5,1 -7.8,1.9 -13.2,2.8 -5.4,0.9 -11,1.3 -17,1.3 -6,0 -11,-0.8 -15,-2.5 -4,-1.6 -7.2,-3.8 -9.5,-6.8 -2.4,-3 -4,-6.4 -5,-10.5 -1,-4 -1.5,-8.5 -1.5,-13.3 l 0,-39.5 20,0 0,37 c 0,6.5 0.9,11.1 2.6,14 1.7,2.9 4.9,4.3 9.6,4.3 1.5,0 3,-0.1 4.5,-0.2 1.6,-0.1 3.1,-0.3 4.3,-0.5 l 0,-54.7 20.1,0 0,68.6 z"
                 id="path48"
                 inkscape:connector-curvature="0"
                 style="fill:#00757f" /><g
                 id="g50"><path
                   class="st2"
                   d="m 431.2,237.9 c -3.2,3.6 -6.3,7.6 -9.6,11.6 -3.2,4 -6.1,8 -8.7,11.7 l 32,0 c 1.2,-1.8 2.5,-3.6 3.8,-5.6 2.7,-3.7 5.4,-7.5 8.4,-11.2 3,-3.7 5.8,-7.4 8.7,-10.9 2.9,-3.6 5.5,-6.8 8,-9.7 l -30.2,0 c -1.1,1.2 -2.3,2.6 -3.6,4 -2.7,3 -5.6,6.3 -8.8,10.1 z"
                   id="path52"
                   inkscape:connector-curvature="0"
                   style="fill:none" /><path
                   class="st1"
                   d="m 445,261.2 -32,0 c 2.6,-3.7 5.5,-7.7 8.7,-11.7 3.2,-4 6.4,-7.9 9.6,-11.6 3.2,-3.6 6.1,-7.1 8.9,-10.2 1.4,-1.5 2.6,-2.9 3.6,-4 l 0,0 0,-16.8 -53.4,0 0,16.8 30.2,0 c -2.5,2.9 -5.1,6.1 -8,9.7 -2.9,3.6 -5.8,7.2 -8.7,10.9 -3,3.7 -5.7,7.5 -8.4,11.2 -2.7,3.7 -4.9,7.2 -6.8,10.5 l 0,11.8 53.3,0 0,-11.8 c 0.9,-1.5 1.9,-3.2 3,-4.8 z"
                   id="path54"
                   inkscape:connector-curvature="0"
                   style="fill:#00757f" /><path
                   class="st3"
                   d="m 466.4,261.2 c 2.6,-3.7 5.5,-7.7 8.7,-11.7 3.2,-4 6.4,-7.9 9.6,-11.6 3.2,-3.6 6.1,-7.1 8.9,-10.2 2.8,-3.1 4.9,-5.5 6.5,-7.3 l 0,-13.5 -53.4,0 -3,0 0,16.8 0,0 30.2,0 c -2.5,2.9 -5,6.1 -8,9.7 -2.9,3.6 -5.8,7.2 -8.7,10.9 -3,3.7 -5.7,7.5 -8.4,11.2 -1.4,2 -2.7,3.7 -3.8,5.6 -1.1,1.7 -2.1,3.3 -3,4.8 l 0,11.8 5.2,0 53.4,0 0,-16.7 -34.2,0 0,0.2 z"
                   id="path56"
                   inkscape:connector-curvature="0"
                   style="fill:#004b52" /></g><polygon
                 class="st3"
                 points="531.2,277.9 531.2,173.3 511.1,176.5 511.1,277.9 "
                 id="polygon58"
                 style="fill:#004b52" /><path
                 class="st3"
                 d="m 536.3,243 c 0,-6.3 1,-11.8 2.9,-16.5 2,-4.7 4.4,-8.7 7.6,-11.8 3.2,-3.2 6.8,-5.5 10.8,-7.1 4,-1.6 8.3,-2.5 12.6,-2.5 10.1,0 18,3.1 23.9,9.3 5.8,6.1 8.8,15.2 8.8,27.1 0,1.2 0,2.5 -0.1,3.8 -0.1,1.3 -0.2,2.7 -0.3,3.7 l -45.6,0 c 0.5,4.1 2.4,7.4 5.8,9.9 3.4,2.5 8,3.6 13.7,3.6 3.6,0 7.3,-0.3 10.8,-1 3.5,-0.7 6.4,-1.5 8.7,-2.5 l 2.7,16.3 c -1.1,0.5 -2.6,1.1 -4.3,1.6 -1.8,0.5 -3.8,1 -6,1.4 -2.2,0.4 -4.5,0.8 -7.1,1 -2.6,0.3 -5,0.4 -7.6,0.4 -6.4,0 -11.9,-1 -16.7,-2.9 -4.7,-1.9 -8.7,-4.4 -11.7,-7.8 -3.1,-3.3 -5.4,-7.2 -6.9,-11.6 -1.3,-4.3 -2,-9.3 -2,-14.4 z m 47.2,-7.7 c -0.1,-1.7 -0.4,-3.4 -0.9,-5 -0.5,-1.6 -1.3,-3.1 -2.3,-4.3 -1.1,-1.3 -2.4,-2.3 -3.9,-3.1 -1.5,-0.8 -3.5,-1.2 -5.8,-1.2 -2.3,0 -4.1,0.4 -5.8,1.2 -1.6,0.8 -3,1.8 -4,3.1 -1.1,1.3 -1.9,2.8 -2.5,4.3 -0.6,1.7 -1,3.4 -1.3,5 l 26.5,0 z"
                 id="path60"
                 inkscape:connector-curvature="0"
                 style="fill:#004b52" /></g></g></g></g></g></g><g
     id="calages"
     class="st4"
     style="display:none"
     transform="translate(0,3.3)" /></svg>